<svg width="84" height="48" viewBox="0 0 84 48" fill="none" xmlns="http://www.w3.org/2000/svg">
<path d="M0 8C0 3.58172 3.58172 0 8 0H76C80.4183 0 84 3.58172 84 8V40C84 44.4183 80.4183 48 76 48H8C3.58172 48 0 44.4183 0 40V8Z" fill="#009689"/>
<path d="M21.268 16.089H22.43V28.773H21.268V16.089ZM22.164 21.087H24.502V22.053H22.164V21.087ZM13.246 24.629H14.24C15.0147 24.629 15.724 24.6197 16.368 24.601C17.0213 24.573 17.6467 24.5263 18.244 24.461C18.8507 24.3957 19.4667 24.307 20.092 24.195L20.232 25.189C19.5787 25.301 18.944 25.3897 18.328 25.455C17.7213 25.5203 17.0867 25.5623 16.424 25.581C15.7613 25.5997 15.0333 25.609 14.24 25.609H13.246V24.629ZM13.246 17.321H19.112V18.273H14.394V25.077H13.246V17.321ZM31.2909 16.369C32.2056 16.369 32.9942 16.467 33.6569 16.663C34.3289 16.8497 34.8422 17.1203 35.1969 17.475C35.5609 17.8297 35.7429 18.2637 35.7429 18.777C35.7429 19.2717 35.5609 19.701 35.1969 20.065C34.8422 20.4197 34.3289 20.6903 33.6569 20.877C32.9942 21.0637 32.2056 21.157 31.2909 21.157C30.3856 21.157 29.5969 21.0637 28.9249 20.877C28.2622 20.6903 27.7489 20.4197 27.3849 20.065C27.0209 19.701 26.8389 19.2717 26.8389 18.777C26.8389 18.2637 27.0209 17.8297 27.3849 17.475C27.7489 17.1203 28.2622 16.8497 28.9249 16.663C29.5969 16.467 30.3856 16.369 31.2909 16.369ZM31.2909 17.293C30.6282 17.293 30.0496 17.3537 29.5549 17.475C29.0696 17.587 28.6916 17.755 28.4209 17.979C28.1596 18.1937 28.0289 18.4597 28.0289 18.777C28.0289 19.0757 28.1596 19.337 28.4209 19.561C28.6916 19.7757 29.0696 19.9437 29.5549 20.065C30.0496 20.177 30.6282 20.233 31.2909 20.233C31.9629 20.233 32.5416 20.177 33.0269 20.065C33.5216 19.9437 33.8996 19.7757 34.1609 19.561C34.4222 19.337 34.5529 19.0757 34.5529 18.777C34.5529 18.4597 34.4222 18.1937 34.1609 17.979C33.8996 17.755 33.5216 17.587 33.0269 17.475C32.5416 17.3537 31.9629 17.293 31.2909 17.293ZM26.9789 24.419H35.6169V28.591H26.9789V24.419ZM34.4829 25.357H28.1129V27.639H34.4829V25.357ZM25.5789 22.235H37.0169V23.187H25.5789V22.235Z" fill="white"/>
<path d="M59.3334 24H68.6667" stroke="white" stroke-width="1.33333" stroke-linecap="round" stroke-linejoin="round"/>
<path d="M64 19.333L68.6667 23.9997L64 28.6663" stroke="white" stroke-width="1.33333" stroke-linecap="round" stroke-linejoin="round"/>
</svg>
