<svg width="453" height="48" viewBox="0 0 453 48" fill="none" xmlns="http://www.w3.org/2000/svg">
<mask id="path-1-inside-1_16_1553" fill="white">
<path d="M0 0H48V48H0V0Z"/>
</mask>
<path d="M0 0H48V48H0V0Z" fill="white" fill-opacity="0.1"/>
<path d="M0 0V-0.666667H-0.666667V0H0ZM48 0H48.6667V-0.666667H48V0ZM48 48V48.6667H48.6667V48H48ZM0 48H-0.666667V48.6667H0V48ZM0 0V0.666667H48V0V-0.666667H0V0ZM48 0H47.3333V48H48H48.6667V0H48ZM48 48V47.3333H0V48V48.6667H48V48ZM0 48H0.666667V0H0H-0.666667V48H0Z" fill="white" fill-opacity="0.2" mask="url(#path-1-inside-1_16_1553)"/>
<g clip-path="url(#clip0_16_1553)">
<path d="M23.017 14.8144C23.0598 14.585 23.1815 14.3779 23.3611 14.2288C23.5406 14.0797 23.7666 13.998 24 13.998C24.2333 13.998 24.4593 14.0797 24.6389 14.2288C24.8184 14.3779 24.9401 14.585 24.983 14.8144L26.034 20.3724C26.1086 20.7676 26.3006 21.1311 26.585 21.4154C26.8693 21.6998 27.2328 21.8918 27.628 21.9664L33.186 23.0174C33.4153 23.0603 33.6225 23.182 33.7716 23.3615C33.9207 23.5411 34.0023 23.7671 34.0023 24.0004C34.0023 24.2338 33.9207 24.4598 33.7716 24.6393C33.6225 24.8189 33.4153 24.9406 33.186 24.9834L27.628 26.0344C27.2328 26.1091 26.8693 26.3011 26.585 26.5855C26.3006 26.8698 26.1086 27.2333 26.034 27.6284L24.983 33.1864C24.9401 33.4158 24.8184 33.623 24.6389 33.7721C24.4593 33.9212 24.2333 34.0028 24 34.0028C23.7666 34.0028 23.5406 33.9212 23.3611 33.7721C23.1815 33.623 23.0598 33.4158 23.017 33.1864L21.966 27.6284C21.8913 27.2333 21.6993 26.8698 21.4149 26.5855C21.1306 26.3011 20.7671 26.1091 20.372 26.0344L14.814 24.9834C14.5846 24.9406 14.3774 24.8189 14.2283 24.6393C14.0792 24.4598 13.9976 24.2338 13.9976 24.0004C13.9976 23.7671 14.0792 23.5411 14.2283 23.3615C14.3774 23.182 14.5846 23.0603 14.814 23.0174L20.372 21.9664C20.7671 21.8918 21.1306 21.6998 21.4149 21.4154C21.6993 21.1311 21.8913 20.7676 21.966 20.3724L23.017 14.8144Z" stroke="white" stroke-width="2" stroke-linecap="round" stroke-linejoin="round"/>
<path d="M32 14V18" stroke="white" stroke-width="2" stroke-linecap="round" stroke-linejoin="round"/>
<path d="M34 16H30" stroke="white" stroke-width="2" stroke-linecap="round" stroke-linejoin="round"/>
<path d="M16 34C17.1046 34 18 33.1046 18 32C18 30.8954 17.1046 30 16 30C14.8954 30 14 30.8954 14 32C14 33.1046 14.8954 34 16 34Z" stroke="white" stroke-width="2" stroke-linecap="round" stroke-linejoin="round"/>
</g>
<path d="M66.25 17.2627C67.7917 17.2627 68.9505 16.4997 69.7266 14.9736L70.9453 15.583C70.4922 16.5309 69.8542 17.2523 69.0312 17.7471C68.2135 18.2419 67.263 18.4893 66.1797 18.4893C65.0651 18.4893 64.1068 18.2575 63.3047 17.7939C62.5026 17.3304 61.8854 16.6715 61.4531 15.8174C61.026 14.958 60.8125 13.945 60.8125 12.7783C60.8125 11.6064 61.026 10.6012 61.4531 9.7627C61.8802 8.92415 62.4948 8.28092 63.2969 7.83301C64.099 7.38509 65.0573 7.16113 66.1719 7.16113C67.3438 7.16113 68.3229 7.3903 69.1094 7.84863C69.8958 8.30697 70.474 8.98665 70.8438 9.8877L69.4297 10.3564C69.1745 9.71582 68.763 9.22624 68.1953 8.8877C67.6328 8.54915 66.9635 8.37988 66.1875 8.37988C64.9688 8.37988 64.0208 8.77311 63.3438 9.55957C62.6667 10.3408 62.3281 11.4137 62.3281 12.7783C62.3281 13.6742 62.487 14.4606 62.8047 15.1377C63.1276 15.8096 63.5807 16.333 64.1641 16.708C64.7526 17.0778 65.4479 17.2627 66.25 17.2627ZM74.7969 18.4893C73.9479 18.4893 73.3099 18.2653 72.8828 17.8174C72.4557 17.3695 72.2422 16.7549 72.2422 15.9736C72.2422 15.0986 72.5286 14.4268 73.1016 13.958C73.6797 13.4893 74.6094 13.2393 75.8906 13.208L77.7891 13.1768V12.7158C77.7891 12.0283 77.6432 11.5361 77.3516 11.2393C77.0599 10.9424 76.6016 10.7939 75.9766 10.7939C75.3464 10.7939 74.888 10.9007 74.6016 11.1143C74.3151 11.3278 74.1432 11.6689 74.0859 12.1377L72.6172 12.0049C72.8568 10.484 73.987 9.72363 76.0078 9.72363C77.0703 9.72363 77.8698 9.96842 78.4062 10.458C78.9427 10.9424 79.2109 11.6455 79.2109 12.5674V16.208C79.2109 16.6247 79.2656 16.9398 79.375 17.1533C79.4844 17.3617 79.6927 17.4658 80 17.4658C80.1458 17.4658 80.2995 17.4476 80.4609 17.4111V18.2861C80.2839 18.3278 80.1042 18.359 79.9219 18.3799C79.7396 18.4007 79.5573 18.4111 79.375 18.4111C78.8542 18.4111 78.474 18.2757 78.2344 18.0049C78 17.7288 77.8672 17.2992 77.8359 16.7158H77.7891C77.4297 17.3617 77.0104 17.82 76.5312 18.0908C76.0573 18.3564 75.4792 18.4893 74.7969 18.4893ZM77.7891 14.1611L76.25 14.1924C75.5938 14.1976 75.0938 14.2653 74.75 14.3955C74.4062 14.5205 74.1432 14.7132 73.9609 14.9736C73.7786 15.234 73.6875 15.5752 73.6875 15.9971C73.6875 16.4554 73.8099 16.8096 74.0547 17.0596C74.3047 17.3096 74.6589 17.4346 75.1172 17.4346C75.638 17.4346 76.0964 17.3174 76.4922 17.083C76.8932 16.8486 77.2083 16.5283 77.4375 16.1221C77.6719 15.7106 77.7891 15.2887 77.7891 14.8564V14.1611ZM82.9844 13.9268V18.333H81.5781V11.8486C81.5781 11.5518 81.5729 11.2393 81.5625 10.9111C81.5573 10.583 81.5469 10.2393 81.5312 9.87988H82.8594C82.8698 10.1195 82.8776 10.3356 82.8828 10.5283C82.8932 10.721 82.901 10.8903 82.9062 11.0361C82.9115 11.1768 82.9141 11.2965 82.9141 11.3955C82.9193 11.4893 82.9219 11.5596 82.9219 11.6064H82.9531C83.1094 11.096 83.2812 10.7002 83.4688 10.4189C83.651 10.1585 83.8594 9.97884 84.0938 9.87988C84.3281 9.77572 84.6172 9.72363 84.9609 9.72363C85.1536 9.72363 85.3438 9.74967 85.5312 9.80176V11.0908C85.3542 11.0387 85.1042 11.0127 84.7812 11.0127C84.1979 11.0127 83.7526 11.2653 83.4453 11.7705C83.138 12.2705 82.9844 12.9893 82.9844 13.9268ZM87.9531 14.4033C87.9531 15.3721 88.1536 16.1195 88.5547 16.6455C88.9557 17.1715 89.5417 17.4346 90.3125 17.4346C90.9219 17.4346 91.4089 17.3122 91.7734 17.0674C92.1432 16.8226 92.3932 16.5127 92.5234 16.1377L93.7578 16.4893C93.2526 17.8226 92.1042 18.4893 90.3125 18.4893C89.0625 18.4893 88.1094 18.1169 87.4531 17.3721C86.8021 16.6273 86.4766 15.5205 86.4766 14.0518C86.4766 12.6559 86.8021 11.5856 87.4531 10.8408C88.1094 10.096 89.0443 9.72363 90.2578 9.72363C91.5026 9.72363 92.4349 10.0986 93.0547 10.8486C93.6745 11.5986 93.9844 12.721 93.9844 14.2158V14.4033H87.9531ZM92.5312 13.3252C92.4531 12.4346 92.2266 11.7861 91.8516 11.3799C91.4766 10.9684 90.9375 10.7627 90.2344 10.7627C89.5521 10.7627 89.0104 10.9919 88.6094 11.4502C88.2135 11.9033 88 12.5283 87.9688 13.3252H92.5312ZM109.758 7.3252L105.266 18.333H103.719L99.2266 7.3252H100.797L103.844 15.0752C103.969 15.3929 104.081 15.7158 104.18 16.0439C104.284 16.3721 104.391 16.6976 104.5 17.0205C104.604 16.6976 104.714 16.359 104.828 16.0049C104.943 15.6507 105.052 15.3408 105.156 15.0752L108.188 7.3252H109.758ZM112.008 6.73926V8.08301H110.602V6.73926H112.008ZM112.008 9.87988V18.333H110.602V9.87988H112.008ZM115.25 14.4033C115.25 15.3721 115.451 16.1195 115.852 16.6455C116.253 17.1715 116.839 17.4346 117.609 17.4346C118.219 17.4346 118.706 17.3122 119.07 17.0674C119.44 16.8226 119.69 16.5127 119.82 16.1377L121.055 16.4893C120.549 17.8226 119.401 18.4893 117.609 18.4893C116.359 18.4893 115.406 18.1169 114.75 17.3721C114.099 16.6273 113.773 15.5205 113.773 14.0518C113.773 12.6559 114.099 11.5856 114.75 10.8408C115.406 10.096 116.341 9.72363 117.555 9.72363C118.799 9.72363 119.732 10.0986 120.352 10.8486C120.971 11.5986 121.281 12.721 121.281 14.2158V14.4033H115.25ZM119.828 13.3252C119.75 12.4346 119.523 11.7861 119.148 11.3799C118.773 10.9684 118.234 10.7627 117.531 10.7627C116.849 10.7627 116.307 10.9919 115.906 11.4502C115.51 11.9033 115.297 12.5283 115.266 13.3252H119.828ZM127.5 12.3564L125.969 18.333H124.344L121.977 9.87988H123.367L124.82 15.7314C124.862 15.8981 124.911 16.109 124.969 16.3643C125.026 16.6195 125.081 16.8877 125.133 17.1689C125.19 16.9242 125.247 16.6794 125.305 16.4346C125.367 16.1898 125.43 15.9476 125.492 15.708L127.031 9.87988H128.539L130.016 15.6846C130.078 15.9294 130.138 16.1768 130.195 16.4268C130.258 16.6768 130.318 16.9242 130.375 17.1689C130.432 16.9189 130.49 16.6585 130.547 16.3877C130.609 16.1117 130.667 15.8695 130.719 15.6611L132.219 9.87988H133.594L131.172 18.333H129.539L128.062 12.3564C128.01 12.1377 127.961 11.9189 127.914 11.7002C127.872 11.4762 127.828 11.2549 127.781 11.0361C127.76 11.1507 127.721 11.346 127.664 11.6221C127.612 11.8929 127.557 12.1377 127.5 12.3564Z" fill="white"/>
<path d="M69.366 28.089H70.542V35.621H69.366V28.089ZM70.206 31.379H72.39V32.345H70.206V31.379ZM66.496 35.887C67.3453 35.887 68.078 35.985 68.694 36.181C69.3193 36.3677 69.8 36.643 70.136 37.007C70.4813 37.3617 70.654 37.7957 70.654 38.309C70.654 38.813 70.4813 39.247 70.136 39.611C69.8 39.975 69.3193 40.2503 68.694 40.437C68.078 40.633 67.3453 40.731 66.496 40.731C65.6373 40.731 64.8953 40.633 64.27 40.437C63.6447 40.2503 63.164 39.975 62.828 39.611C62.492 39.247 62.324 38.813 62.324 38.309C62.324 37.7957 62.492 37.3617 62.828 37.007C63.164 36.643 63.6447 36.3677 64.27 36.181C64.8953 35.985 65.6373 35.887 66.496 35.887ZM66.496 36.825C65.8707 36.825 65.3293 36.8857 64.872 37.007C64.424 37.119 64.074 37.287 63.822 37.511C63.5793 37.7257 63.458 37.9917 63.458 38.309C63.458 38.617 63.5793 38.883 63.822 39.107C64.074 39.331 64.424 39.5037 64.872 39.625C65.3293 39.737 65.8707 39.793 66.496 39.793C67.112 39.793 67.6487 39.737 68.106 39.625C68.5633 39.5037 68.9133 39.331 69.156 39.107C69.3987 38.883 69.52 38.617 69.52 38.309C69.52 37.9917 69.3987 37.7257 69.156 37.511C68.9133 37.287 68.5633 37.119 68.106 37.007C67.6487 36.8857 67.112 36.825 66.496 36.825ZM61.26 33.661H62.24C63.1267 33.661 63.8967 33.6517 64.55 33.633C65.2033 33.6143 65.8053 33.5723 66.356 33.507C66.9067 33.4417 67.4667 33.353 68.036 33.241L68.162 34.193C67.5833 34.305 67.0093 34.3937 66.44 34.459C65.88 34.515 65.264 34.557 64.592 34.585C63.92 34.6037 63.136 34.613 62.24 34.613H61.26V33.661ZM61.26 29.055H66.846V30.007H62.408V34.291H61.26V29.055ZM82.7909 28.103H83.9529V37.385H82.7909V28.103ZM75.8189 39.527H84.3449V40.479H75.8189V39.527ZM75.8189 36.531H76.9809V39.975H75.8189V36.531ZM76.8689 28.803H77.8349V30.077C77.8349 30.9077 77.6902 31.687 77.4009 32.415C77.1116 33.1337 76.7009 33.7683 76.1689 34.319C75.6462 34.8603 75.0302 35.2757 74.3209 35.565L73.7049 34.641C74.3489 34.389 74.9042 34.0297 75.3709 33.563C75.8469 33.0963 76.2156 32.5643 76.4769 31.967C76.7382 31.3603 76.8689 30.7303 76.8689 30.077V28.803ZM77.0789 28.803H78.0449V30.077C78.0449 30.553 78.1196 31.015 78.2689 31.463C78.4182 31.9017 78.6329 32.3123 78.9129 32.695C79.1929 33.0777 79.5242 33.4183 79.9069 33.717C80.2989 34.0063 80.7282 34.235 81.1949 34.403L80.5929 35.327C79.8929 35.0563 79.2769 34.6643 78.7449 34.151C78.2222 33.6283 77.8116 33.0217 77.5129 32.331C77.2236 31.631 77.0789 30.8797 77.0789 30.077V28.803ZM90.5598 29.013C91.2225 29.013 91.8058 29.139 92.3098 29.391C92.8231 29.6337 93.2245 29.979 93.5138 30.427C93.8031 30.875 93.9478 31.3977 93.9478 31.995C93.9478 32.583 93.8031 33.1057 93.5138 33.563C93.2245 34.011 92.8231 34.361 92.3098 34.613C91.8058 34.8557 91.2225 34.977 90.5598 34.977C89.9065 34.977 89.3231 34.8557 88.8098 34.613C88.2965 34.361 87.8905 34.011 87.5918 33.563C87.3025 33.1057 87.1578 32.583 87.1578 31.995C87.1578 31.3977 87.3025 30.875 87.5918 30.427C87.8905 29.979 88.2965 29.6337 88.8098 29.391C89.3231 29.139 89.9065 29.013 90.5598 29.013ZM90.5598 30.021C90.1305 30.021 89.7431 30.105 89.3978 30.273C89.0618 30.4317 88.7958 30.6603 88.5998 30.959C88.4038 31.2577 88.3058 31.603 88.3058 31.995C88.3058 32.387 88.4038 32.7323 88.5998 33.031C88.7958 33.3297 89.0618 33.563 89.3978 33.731C89.7431 33.8897 90.1305 33.969 90.5598 33.969C90.9985 33.969 91.3858 33.8897 91.7218 33.731C92.0578 33.563 92.3238 33.3297 92.5198 33.031C92.7158 32.7323 92.8138 32.387 92.8138 31.995C92.8138 31.603 92.7158 31.2577 92.5198 30.959C92.3238 30.6603 92.0578 30.4317 91.7218 30.273C91.3858 30.105 90.9985 30.021 90.5598 30.021ZM95.6138 28.089H96.7758V40.773H95.6138V28.089ZM86.6818 38.001L86.5278 37.021C87.3025 37.021 88.1518 37.0163 89.0758 37.007C89.9998 36.9883 90.9518 36.951 91.9318 36.895C92.9211 36.8297 93.8731 36.727 94.7878 36.587L94.8858 37.441C93.9338 37.6183 92.9678 37.749 91.9878 37.833C91.0171 37.9077 90.0791 37.9543 89.1738 37.973C88.2685 37.9917 87.4378 38.001 86.6818 38.001ZM112.487 28.103H113.649V37.455H112.487V28.103ZM109.743 31.995H112.711V32.961H109.743V31.995ZM108.567 29.069H109.799C109.799 30.161 109.557 31.1597 109.071 32.065C108.586 32.961 107.905 33.7403 107.027 34.403C106.15 35.0657 105.114 35.5977 103.919 35.999L103.429 35.061C104.456 34.7157 105.357 34.2723 106.131 33.731C106.906 33.1897 107.503 32.5643 107.923 31.855C108.353 31.1457 108.567 30.3757 108.567 29.545V29.069ZM104.059 29.069H109.323V30.035H104.059V29.069ZM105.641 39.527H113.971V40.479H105.641V39.527ZM105.641 36.503H106.817V40.003H105.641V36.503ZM124.778 28.089H125.94V35.663H124.778V28.089ZM125.618 31.365H127.802V32.331H125.618V31.365ZM121.278 29.027H122.51C122.51 30.1003 122.272 31.0757 121.796 31.953C121.32 32.8303 120.639 33.5863 119.752 34.221C118.875 34.8557 117.825 35.3503 116.602 35.705L116.126 34.767C117.199 34.4497 118.119 34.0343 118.884 33.521C119.649 33.0077 120.237 32.415 120.648 31.743C121.068 31.071 121.278 30.3383 121.278 29.545V29.027ZM116.672 29.027H121.936V29.979H116.672V29.027ZM121.964 35.817C122.804 35.817 123.532 35.915 124.148 36.111C124.764 36.307 125.24 36.5917 125.576 36.965C125.912 37.329 126.08 37.7677 126.08 38.281C126.08 38.785 125.912 39.219 125.576 39.583C125.24 39.947 124.764 40.227 124.148 40.423C123.532 40.6283 122.804 40.731 121.964 40.731C121.133 40.731 120.405 40.6283 119.78 40.423C119.164 40.227 118.683 39.947 118.338 39.583C118.002 39.219 117.834 38.785 117.834 38.281C117.834 37.7677 118.002 37.329 118.338 36.965C118.683 36.5917 119.164 36.307 119.78 36.111C120.405 35.915 121.133 35.817 121.964 35.817ZM121.964 36.741C121.367 36.741 120.844 36.8063 120.396 36.937C119.948 37.0583 119.598 37.2357 119.346 37.469C119.103 37.693 118.982 37.9637 118.982 38.281C118.982 38.589 119.103 38.8597 119.346 39.093C119.598 39.317 119.948 39.4943 120.396 39.625C120.844 39.7463 121.367 39.807 121.964 39.807C122.58 39.807 123.107 39.7463 123.546 39.625C123.985 39.4943 124.325 39.317 124.568 39.093C124.82 38.8597 124.946 38.589 124.946 38.281C124.946 37.9637 124.82 37.693 124.568 37.469C124.325 37.2357 123.985 37.0583 123.546 36.937C123.107 36.8063 122.58 36.741 121.964 36.741ZM133.042 29.447H140.097V30.399H133.042V29.447ZM132.874 37.623L132.734 36.643C133.49 36.643 134.316 36.6383 135.212 36.629C136.108 36.6103 137.027 36.5777 137.97 36.531C138.912 36.475 139.813 36.3957 140.672 36.293L140.742 37.161C139.864 37.301 138.959 37.4037 138.026 37.469C137.092 37.5343 136.182 37.5763 135.296 37.595C134.418 37.6137 133.611 37.623 132.874 37.623ZM134.4 30.175H135.534V36.909H134.4V30.175ZM137.606 30.175H138.726V36.909H137.606V30.175ZM141.456 28.089H142.618V40.759H141.456V28.089ZM142.352 33.157H144.69V34.123H142.352V33.157ZM147.236 34.921H155.93V35.859H147.236V34.921ZM145.766 38.155H157.246V39.121H145.766V38.155ZM147.236 29.181H155.804V30.133H148.412V35.201H147.236V29.181ZM148.048 31.995H155.524V32.933H148.048V31.995ZM167.913 28.089H169.075V40.773H167.913V28.089ZM164.035 32.261H168.291V33.213H164.035V32.261ZM159.331 29.503H160.493V37.357H159.331V29.503ZM159.331 36.727H160.311C160.965 36.727 161.599 36.713 162.215 36.685C162.841 36.657 163.461 36.6057 164.077 36.531C164.693 36.4563 165.323 36.3537 165.967 36.223L166.107 37.189C165.435 37.3197 164.782 37.4223 164.147 37.497C163.522 37.5717 162.892 37.6277 162.257 37.665C161.632 37.693 160.983 37.707 160.311 37.707H159.331V36.727Z" fill="white" fill-opacity="0.7"/>
<defs>
<clipPath id="clip0_16_1553">
<rect width="24" height="24" fill="white" transform="translate(12 12)"/>
</clipPath>
</defs>
</svg>
