<svg width="112" height="48" viewBox="0 0 112 48" fill="none" xmlns="http://www.w3.org/2000/svg">
<path d="M0 8C0 3.58172 3.58172 0 8 0H104C108.418 0 112 3.58172 112 8V40C112 44.4183 108.418 48 104 48H8C3.58172 48 0 44.4183 0 40V8Z" fill="#009689"/>
<path d="M16.032 17.181H16.998V19.449C16.998 20.177 16.9047 20.8863 16.718 21.577C16.5407 22.2583 16.284 22.8977 15.948 23.495C15.6213 24.083 15.234 24.6057 14.786 25.063C14.3473 25.511 13.8667 25.8657 13.344 26.127L12.63 25.161C13.106 24.9463 13.5493 24.6383 13.96 24.237C14.3707 23.8357 14.73 23.383 15.038 22.879C15.346 22.3657 15.5887 21.815 15.766 21.227C15.9433 20.639 16.032 20.0463 16.032 19.449V17.181ZM16.228 17.181H17.194V19.449C17.194 20.0277 17.278 20.597 17.446 21.157C17.6233 21.717 17.866 22.249 18.174 22.753C18.4913 23.2477 18.8507 23.6863 19.252 24.069C19.6627 24.4423 20.1013 24.7363 20.568 24.951L19.868 25.875C19.3547 25.6323 18.8787 25.2917 18.44 24.853C18.0013 24.4143 17.614 23.9103 17.278 23.341C16.9513 22.7717 16.6947 22.1557 16.508 21.493C16.3213 20.8303 16.228 20.149 16.228 19.449V17.181ZM21.898 16.089H23.06V28.773H21.898V16.089ZM28.7009 17.391H29.6529V18.413C29.6529 19.1877 29.5036 19.911 29.2049 20.583C28.9156 21.2457 28.5096 21.8243 27.9869 22.319C27.4642 22.8043 26.8482 23.173 26.1389 23.425L25.5229 22.529C26.1576 22.305 26.7129 21.983 27.1889 21.563C27.6649 21.143 28.0336 20.667 28.2949 20.135C28.5656 19.5937 28.7009 19.0197 28.7009 18.413V17.391ZM28.9109 17.391H29.8629V18.413C29.8629 18.9637 29.9889 19.4957 30.2409 20.009C30.4929 20.5223 30.8476 20.975 31.3049 21.367C31.7716 21.759 32.3129 22.0623 32.9289 22.277L32.3409 23.187C31.6502 22.935 31.0436 22.5757 30.5209 22.109C30.0076 21.633 29.6109 21.0777 29.3309 20.443C29.0509 19.8083 28.9109 19.1317 28.9109 18.413V17.391ZM25.8729 16.971H32.6489V17.923H25.8729V16.971ZM34.2449 16.089H35.4069V23.719H34.2449V16.089ZM35.0849 19.421H37.2689V20.401H35.0849V19.421ZM27.1749 24.391H35.4069V28.759H34.2449V25.343H27.1749V24.391ZM47.0398 16.089H48.1878V28.759H47.0398V16.089ZM47.9218 21.297H50.2598V22.277H47.9218V21.297ZM38.3878 18.119H45.8498V19.071H38.3878V18.119ZM42.1818 20.107C42.7791 20.107 43.3065 20.233 43.7638 20.485C44.2305 20.737 44.5945 21.0823 44.8558 21.521C45.1265 21.9503 45.2618 22.4497 45.2618 23.019C45.2618 23.5883 45.1265 24.0923 44.8558 24.531C44.5945 24.9697 44.2305 25.315 43.7638 25.567C43.3065 25.8097 42.7791 25.931 42.1818 25.931C41.5845 25.931 41.0525 25.8097 40.5858 25.567C40.1285 25.315 39.7645 24.9697 39.4938 24.531C39.2231 24.0923 39.0878 23.5883 39.0878 23.019C39.0878 22.4497 39.2231 21.9503 39.4938 21.521C39.7645 21.0823 40.1285 20.737 40.5858 20.485C41.0525 20.233 41.5845 20.107 42.1818 20.107ZM42.1818 21.073C41.7991 21.073 41.4585 21.157 41.1598 21.325C40.8611 21.493 40.6231 21.7217 40.4458 22.011C40.2778 22.3003 40.1938 22.6363 40.1938 23.019C40.1938 23.4017 40.2778 23.7423 40.4458 24.041C40.6231 24.3303 40.8611 24.559 41.1598 24.727C41.4585 24.8857 41.7991 24.965 42.1818 24.965C42.5551 24.965 42.8911 24.8857 43.1898 24.727C43.4885 24.559 43.7218 24.3303 43.8898 24.041C44.0671 23.7423 44.1558 23.4017 44.1558 23.019C44.1558 22.6363 44.0671 22.3003 43.8898 22.011C43.7218 21.7217 43.4885 21.493 43.1898 21.325C42.8911 21.157 42.5551 21.073 42.1818 21.073ZM41.5798 16.243H42.7418V18.539H41.5798V16.243ZM60.5627 16.089H61.7247V28.759H60.5627V16.089ZM56.8527 17.461H58.0007C58.0007 18.3757 57.8887 19.2577 57.6647 20.107C57.4501 20.9563 57.1094 21.7637 56.6427 22.529C56.1761 23.285 55.5694 23.9897 54.8227 24.643C54.0761 25.2963 53.1707 25.8797 52.1067 26.393L51.4907 25.455C52.7134 24.867 53.7214 24.181 54.5147 23.397C55.3081 22.613 55.8961 21.7403 56.2787 20.779C56.6614 19.8083 56.8527 18.763 56.8527 17.643V17.461ZM52.0787 17.461H57.3427V18.399H52.0787V17.461Z" fill="white"/>
<path d="M87.3334 24H96.6667" stroke="white" stroke-width="1.33333" stroke-linecap="round" stroke-linejoin="round"/>
<path d="M92 19.333L96.6667 23.9997L92 28.6663" stroke="white" stroke-width="1.33333" stroke-linecap="round" stroke-linejoin="round"/>
</svg>
