<svg width="45" height="45" viewBox="0 0 45 45" fill="none" xmlns="http://www.w3.org/2000/svg">
<path d="M0 4C0 1.79086 1.79086 0 4 0H41C43.2091 0 45 1.79086 45 4V41C45 43.2091 43.2091 45 41 45H4C1.79086 45 0 43.2091 0 41V4Z" fill="#F3F4F6"/>
<path d="M30.8334 22.4993H28.7667C28.4026 22.4986 28.0481 22.6171 27.7577 22.8368C27.4672 23.0565 27.2567 23.3653 27.1584 23.716L25.2001 30.6827C25.1875 30.726 25.1611 30.764 25.1251 30.791C25.089 30.8181 25.0452 30.8327 25.0001 30.8327C24.955 30.8327 24.9111 30.8181 24.8751 30.791C24.839 30.764 24.8127 30.726 24.8001 30.6827L20.2001 14.316C20.1875 14.2727 20.1611 14.2347 20.1251 14.2077C20.089 14.1806 20.0452 14.166 20.0001 14.166C19.955 14.166 19.9111 14.1806 19.8751 14.2077C19.839 14.2347 19.8127 14.2727 19.8001 14.316L17.8417 21.2827C17.7438 21.632 17.5346 21.9398 17.2458 22.1594C16.957 22.3789 16.6045 22.4983 16.2417 22.4993H14.1667" stroke="#4A5565" stroke-width="1.66667" stroke-linecap="round" stroke-linejoin="round"/>
</svg>
