<svg width="448" height="56" viewBox="0 0 448 56" fill="none" xmlns="http://www.w3.org/2000/svg">
<g clip-path="url(#clip0_66_5)">
<g filter="url(#filter0_dd_66_5)">
<path d="M0 7.99999C0 3.58172 3.58172 0 8 0H439.986C444.404 0 447.986 3.58172 447.986 8V47.9896C447.986 52.4079 444.404 55.9896 439.986 55.9896H7.99999C3.58171 55.9896 0 52.4079 0 47.9896V7.99999Z" fill="#5EEAD4" shape-rendering="crispEdges"/>
<path d="M200.373 32.1823H214.805V33.3967H200.373V32.1823ZM206.832 28.7855H208.276V32.6927H206.832V28.7855ZM202.133 20.6191H213.01V25.4415H203.612V28.6271H202.168V24.2799H211.567V21.8159H202.133V20.6191ZM202.168 28.0111H213.38V29.2079H202.168V28.0111ZM218.13 21.1295H228.373V22.3263H218.13V21.1295ZM216.564 31.8303H230.943V33.0447H216.564V31.8303ZM227.581 21.1295H229.025V22.7311C229.025 23.3999 229.013 24.1157 228.989 24.8783C228.978 25.6292 228.931 26.4623 228.849 27.3775C228.766 28.2927 228.626 29.3253 228.426 30.4751L226.948 30.3167C227.159 29.2373 227.306 28.2458 227.388 27.3423C227.482 26.4389 227.534 25.6058 227.546 24.8431C227.57 24.0804 227.581 23.3764 227.581 22.7311V21.1295ZM244.335 19.4575H245.796V31.0735H244.335V19.4575ZM235.57 33.8191H246.289V35.0159H235.57V33.8191ZM235.57 29.8943H237.031V34.2239H235.57V29.8943ZM237.26 20.5663C238.058 20.5663 238.768 20.7306 239.39 21.0591C240.011 21.3876 240.504 21.8511 240.868 22.4495C241.232 23.0362 241.414 23.7109 241.414 24.4735C241.414 25.2362 241.232 25.9167 240.868 26.5151C240.504 27.1018 240.011 27.5652 239.39 27.9055C238.768 28.2341 238.058 28.3983 237.26 28.3983C236.474 28.3983 235.764 28.2341 235.13 27.9055C234.509 27.5652 234.016 27.1018 233.652 26.5151C233.288 25.9167 233.106 25.2362 233.106 24.4735C233.106 23.7109 233.288 23.0362 233.652 22.4495C234.016 21.8511 234.509 21.3876 235.13 21.0591C235.764 20.7306 236.474 20.5663 237.26 20.5663ZM237.26 21.8335C236.744 21.8335 236.28 21.945 235.87 22.1679C235.459 22.3908 235.13 22.7018 234.884 23.1007C234.649 23.4996 234.532 23.9572 234.532 24.4735C234.532 25.0015 234.649 25.465 234.884 25.8639C235.13 26.2511 235.459 26.5562 235.87 26.7791C236.28 27.002 236.744 27.1135 237.26 27.1135C237.776 27.1135 238.24 27.002 238.65 26.7791C239.073 26.5562 239.401 26.2511 239.636 25.8639C239.871 25.465 239.988 25.0015 239.988 24.4735C239.988 23.9572 239.871 23.4996 239.636 23.1007C239.401 22.7018 239.073 22.3908 238.65 22.1679C238.24 21.945 237.776 21.8335 237.26 21.8335Z" fill="white"/>
</g>
</g>
<defs>
<filter id="filter0_dd_66_5" x="-12" y="-2" width="471.986" height="79.9893" filterUnits="userSpaceOnUse" color-interpolation-filters="sRGB">
<feFlood flood-opacity="0" result="BackgroundImageFix"/>
<feColorMatrix in="SourceAlpha" type="matrix" values="0 0 0 0 0 0 0 0 0 0 0 0 0 0 0 0 0 0 127 0" result="hardAlpha"/>
<feMorphology radius="4" operator="erode" in="SourceAlpha" result="effect1_dropShadow_66_5"/>
<feOffset dy="4"/>
<feGaussianBlur stdDeviation="3"/>
<feComposite in2="hardAlpha" operator="out"/>
<feColorMatrix type="matrix" values="0 0 0 0 0 0 0 0 0 0 0 0 0 0 0 0 0 0 0.1 0"/>
<feBlend mode="normal" in2="BackgroundImageFix" result="effect1_dropShadow_66_5"/>
<feColorMatrix in="SourceAlpha" type="matrix" values="0 0 0 0 0 0 0 0 0 0 0 0 0 0 0 0 0 0 127 0" result="hardAlpha"/>
<feMorphology radius="3" operator="erode" in="SourceAlpha" result="effect2_dropShadow_66_5"/>
<feOffset dy="10"/>
<feGaussianBlur stdDeviation="7.5"/>
<feComposite in2="hardAlpha" operator="out"/>
<feColorMatrix type="matrix" values="0 0 0 0 0 0 0 0 0 0 0 0 0 0 0 0 0 0 0.1 0"/>
<feBlend mode="normal" in2="effect1_dropShadow_66_5" result="effect2_dropShadow_66_5"/>
<feBlend mode="normal" in="SourceGraphic" in2="effect2_dropShadow_66_5" result="shape"/>
</filter>
<clipPath id="clip0_66_5">
<rect width="447.986" height="55.9896" fill="white"/>
</clipPath>
</defs>
</svg>
