<svg width="448" height="56" viewBox="0 0 448 56" fill="none" xmlns="http://www.w3.org/2000/svg">
<path d="M0 7.99999C0 3.58172 3.58172 0 8 0H439.986C444.404 0 447.986 3.58172 447.986 8V47.9896C447.986 52.4079 444.404 55.9896 439.986 55.9896H7.99999C3.58171 55.9896 0 52.4079 0 47.9896V7.99999Z" fill="#5EEAD4"/>
<path d="M174.947 19.4399H176.355V35.3679H174.947V19.4399ZM172.289 25.9167H175.352V27.1311H172.289V25.9167ZM171.339 19.7919H172.712V34.5407H171.339V19.7919ZM163.648 21.3583H165.108V30.5455H163.648V21.3583ZM163.648 29.9647H164.651C165.484 29.9647 166.358 29.9354 167.273 29.8767C168.188 29.8063 169.162 29.6655 170.195 29.4543L170.371 30.7391C169.291 30.9503 168.282 31.0911 167.344 31.1615C166.405 31.2202 165.507 31.2495 164.651 31.2495H163.648V29.9647ZM195.596 19.4575H197.057V31.2143H195.596V19.4575ZM192.146 24.3503H195.877V25.5647H192.146V24.3503ZM190.668 20.6719H192.217C192.217 22.0447 191.912 23.3002 191.301 24.4383C190.691 25.5647 189.835 26.5444 188.732 27.3775C187.629 28.2106 186.326 28.8794 184.825 29.3839L184.209 28.2047C185.499 27.7706 186.632 27.2132 187.605 26.5327C188.579 25.8522 189.33 25.066 189.858 24.1743C190.398 23.2826 190.668 22.3146 190.668 21.2703V20.6719ZM185.001 20.6719H191.618V21.8863H185.001V20.6719ZM186.989 33.8191H197.461V35.0159H186.989V33.8191ZM186.989 30.0175H188.468V34.4175H186.989V30.0175ZM211.047 19.4399H212.508V28.9615H211.047V19.4399ZM212.103 23.5583H214.849V24.7727H212.103V23.5583ZM206.647 20.6191H208.196C208.196 21.9684 207.897 23.1946 207.298 24.2975C206.7 25.4005 205.844 26.3508 204.729 27.1487C203.626 27.9466 202.306 28.5685 200.769 29.0143L200.17 27.8351C201.52 27.4362 202.676 26.9141 203.638 26.2687C204.6 25.6234 205.339 24.8783 205.855 24.0335C206.383 23.1887 206.647 22.2676 206.647 21.2703V20.6191ZM200.857 20.6191H207.474V21.8159H200.857V20.6191ZM207.51 29.1551C208.566 29.1551 209.481 29.2783 210.255 29.5247C211.03 29.7711 211.628 30.129 212.05 30.5983C212.473 31.0559 212.684 31.6074 212.684 32.2527C212.684 32.8863 212.473 33.4319 212.05 33.8895C211.628 34.3471 211.03 34.6991 210.255 34.9455C209.481 35.2037 208.566 35.3327 207.51 35.3327C206.465 35.3327 205.55 35.2037 204.764 34.9455C203.99 34.6991 203.385 34.3471 202.951 33.8895C202.529 33.4319 202.318 32.8863 202.318 32.2527C202.318 31.6074 202.529 31.0559 202.951 30.5983C203.385 30.129 203.99 29.7711 204.764 29.5247C205.55 29.2783 206.465 29.1551 207.51 29.1551ZM207.51 30.3167C206.759 30.3167 206.102 30.3989 205.538 30.5631C204.975 30.7157 204.535 30.9386 204.218 31.2319C203.913 31.5135 203.761 31.8538 203.761 32.2527C203.761 32.6399 203.913 32.9802 204.218 33.2735C204.535 33.5551 204.975 33.7781 205.538 33.9423C206.102 34.0949 206.759 34.1711 207.51 34.1711C208.284 34.1711 208.947 34.0949 209.498 33.9423C210.05 33.7781 210.478 33.5551 210.783 33.2735C211.1 32.9802 211.258 32.6399 211.258 32.2527C211.258 31.8538 211.1 31.5135 210.783 31.2319C210.478 30.9386 210.05 30.7157 209.498 30.5631C208.947 30.3989 208.284 30.3167 207.51 30.3167ZM225.413 26.9199H226.856V28.9439H225.413V26.9199ZM232.119 19.4575H233.58V30.1231H232.119V19.4575ZM232.964 24.2623H235.903V25.4767H232.964V24.2623ZM221.33 29.6655L221.154 28.4863C222.104 28.4863 223.143 28.4805 224.269 28.4687C225.407 28.4453 226.569 28.3983 227.754 28.3279C228.939 28.2575 230.077 28.1461 231.168 27.9935L231.274 29.0319C230.148 29.2314 228.992 29.3781 227.807 29.4719C226.633 29.5541 225.489 29.6069 224.375 29.6303C223.272 29.6538 222.257 29.6655 221.33 29.6655ZM223.108 30.9327H233.58V35.3679H232.119V32.0943H223.108V30.9327ZM221.559 20.8831H230.693V21.9919H221.559V20.8831ZM226.117 22.5903C227.244 22.5903 228.141 22.8015 228.81 23.2239C229.49 23.6463 229.831 24.2212 229.831 24.9487C229.831 25.6762 229.49 26.2511 228.81 26.6735C228.141 27.0959 227.244 27.3071 226.117 27.3071C225.002 27.3071 224.105 27.0959 223.424 26.6735C222.744 26.2511 222.404 25.6762 222.404 24.9487C222.404 24.2212 222.744 23.6463 223.424 23.2239C224.105 22.8015 225.002 22.5903 226.117 22.5903ZM226.117 23.6111C225.413 23.6111 224.85 23.7284 224.428 23.9631C224.005 24.1978 223.794 24.5263 223.794 24.9487C223.794 25.3477 224.005 25.6762 224.428 25.9343C224.85 26.1807 225.413 26.3039 226.117 26.3039C226.821 26.3039 227.384 26.1807 227.807 25.9343C228.229 25.6762 228.44 25.3477 228.44 24.9487C228.44 24.5263 228.229 24.1978 227.807 23.9631C227.384 23.7284 226.821 23.6111 226.117 23.6111ZM225.413 19.3167H226.856V21.4287H225.413V19.3167ZM249.013 19.4575H250.474V31.0735H249.013V19.4575ZM240.249 33.8191H250.967V35.0159H240.249V33.8191ZM240.249 29.8943H241.709V34.2239H240.249V29.8943ZM241.938 20.5663C242.736 20.5663 243.446 20.7306 244.068 21.0591C244.69 21.3876 245.182 21.8511 245.546 22.4495C245.91 23.0362 246.092 23.7109 246.092 24.4735C246.092 25.2362 245.91 25.9167 245.546 26.5151C245.182 27.1018 244.69 27.5652 244.068 27.9055C243.446 28.2341 242.736 28.3983 241.938 28.3983C241.152 28.3983 240.442 28.2341 239.809 27.9055C239.187 27.5652 238.694 27.1018 238.33 26.5151C237.966 25.9167 237.785 25.2362 237.785 24.4735C237.785 23.7109 237.966 23.0362 238.33 22.4495C238.694 21.8511 239.187 21.3876 239.809 21.0591C240.442 20.7306 241.152 20.5663 241.938 20.5663ZM241.938 21.8335C241.422 21.8335 240.958 21.945 240.548 22.1679C240.137 22.3908 239.809 22.7018 239.562 23.1007C239.327 23.4996 239.21 23.9572 239.21 24.4735C239.21 25.0015 239.327 25.465 239.562 25.8639C239.809 26.2511 240.137 26.5562 240.548 26.7791C240.958 27.002 241.422 27.1135 241.938 27.1135C242.454 27.1135 242.918 27.002 243.329 26.7791C243.751 26.5562 244.079 26.2511 244.314 25.8639C244.549 25.465 244.666 25.0015 244.666 24.4735C244.666 23.9572 244.549 23.4996 244.314 23.1007C244.079 22.7018 243.751 22.3908 243.329 22.1679C242.918 21.945 242.454 21.8335 241.938 21.8335ZM264.412 19.4399H265.855V35.3679H264.412V19.4399ZM265.521 25.9871H268.46V27.2191H265.521V25.9871ZM253.535 21.9919H262.916V23.1887H253.535V21.9919ZM258.305 24.4911C259.056 24.4911 259.719 24.6495 260.294 24.9663C260.88 25.2831 261.338 25.7172 261.666 26.2687C262.007 26.8085 262.177 27.4362 262.177 28.1519C262.177 28.8676 262.007 29.5013 261.666 30.0527C261.338 30.6042 260.88 31.0383 260.294 31.3551C259.719 31.6602 259.056 31.8127 258.305 31.8127C257.554 31.8127 256.885 31.6602 256.298 31.3551C255.723 31.0383 255.266 30.6042 254.926 30.0527C254.585 29.5013 254.415 28.8676 254.415 28.1519C254.415 27.4362 254.585 26.8085 254.926 26.2687C255.266 25.7172 255.723 25.2831 256.298 24.9663C256.885 24.6495 257.554 24.4911 258.305 24.4911ZM258.305 25.7055C257.824 25.7055 257.395 25.8111 257.02 26.0223C256.645 26.2335 256.345 26.521 256.122 26.8847C255.911 27.2484 255.806 27.6708 255.806 28.1519C255.806 28.633 255.911 29.0613 256.122 29.4367C256.345 29.8005 256.645 30.0879 257.02 30.2991C257.395 30.4986 257.824 30.5983 258.305 30.5983C258.774 30.5983 259.197 30.4986 259.572 30.2991C259.947 30.0879 260.241 29.8005 260.452 29.4367C260.675 29.0613 260.786 28.633 260.786 28.1519C260.786 27.6708 260.675 27.2484 260.452 26.8847C260.241 26.521 259.947 26.2335 259.572 26.0223C259.197 25.8111 258.774 25.7055 258.305 25.7055ZM257.548 19.6335H259.009V22.5199H257.548V19.6335ZM281.412 19.4399H282.873V35.3679H281.412V19.4399ZM276.748 21.1647H278.191C278.191 22.3146 278.051 23.4234 277.769 24.4911C277.499 25.5588 277.071 26.5738 276.484 27.5359C275.898 28.4863 275.135 29.3722 274.196 30.1935C273.258 31.0149 272.119 31.7482 270.782 32.3935L270.007 31.2143C271.544 30.4751 272.812 29.6127 273.809 28.6271C274.806 27.6415 275.546 26.5444 276.027 25.3359C276.508 24.1157 276.748 22.8015 276.748 21.3935V21.1647ZM270.747 21.1647H277.364V22.3439H270.747V21.1647Z" fill="white"/>
</svg>
