<svg width="448" height="56" viewBox="0 0 448 56" fill="none" xmlns="http://www.w3.org/2000/svg">
<path d="M0 7.99999C0 3.58172 3.58172 0 8 0H439.986C444.404 0 447.986 3.58172 447.986 8V47.9896C447.986 52.4079 444.404 55.9896 439.986 55.9896H7.99999C3.58171 55.9896 0 52.4079 0 47.9896V7.99999Z" fill="#2DD4BF"/>
<path d="M196.914 28.9967H198.375V31.6191H196.914V28.9967ZM203.884 19.4399H205.344V35.3679H203.884V19.4399ZM192.672 32.3407L192.461 31.1087C193.47 31.097 194.561 31.0853 195.735 31.0735C196.908 31.0618 198.105 31.0207 199.325 30.9503C200.545 30.8799 201.725 30.7685 202.863 30.6159L202.968 31.7071C201.795 31.8949 200.604 32.0357 199.396 32.1295C198.187 32.2117 197.008 32.2703 195.858 32.3055C194.708 32.329 193.646 32.3407 192.672 32.3407ZM192.796 21.3935H202.458V22.5727H192.796V21.3935ZM197.618 23.4703C198.381 23.4703 199.049 23.5935 199.624 23.8399C200.199 24.0863 200.645 24.4324 200.962 24.8783C201.29 25.3124 201.455 25.8287 201.455 26.4271C201.455 27.0138 201.29 27.5301 200.962 27.9759C200.645 28.4218 200.199 28.7679 199.624 29.0143C199.049 29.249 198.381 29.3663 197.618 29.3663C196.867 29.3663 196.204 29.249 195.629 29.0143C195.054 28.7679 194.608 28.4218 194.292 27.9759C193.975 27.5301 193.816 27.0138 193.816 26.4271C193.816 25.8287 193.975 25.3124 194.292 24.8783C194.608 24.4324 195.054 24.0863 195.629 23.8399C196.204 23.5935 196.867 23.4703 197.618 23.4703ZM197.618 24.6143C196.914 24.6143 196.333 24.7786 195.876 25.1071C195.418 25.4357 195.189 25.8756 195.189 26.4271C195.189 26.9669 195.418 27.401 195.876 27.7295C196.333 28.0581 196.914 28.2223 197.618 28.2223C198.345 28.2223 198.932 28.0581 199.378 27.7295C199.836 27.401 200.064 26.9669 200.064 26.4271C200.064 25.8756 199.836 25.4357 199.378 25.1071C198.932 24.7786 198.345 24.6143 197.618 24.6143ZM196.914 19.4575H198.375V22.0271H196.914V19.4575ZM213.069 27.4655H214.53V31.0031H213.069V27.4655ZM220.127 19.4575H221.588V31.5487H220.127V19.4575ZM210.729 33.8191H221.975V35.0159H210.729V33.8191ZM210.729 30.3695H212.189V34.1359H210.729V30.3695ZM208.669 28.0111L208.476 26.7967C209.461 26.7967 210.529 26.7909 211.679 26.7791C212.841 26.7556 214.026 26.7146 215.234 26.6559C216.443 26.5855 217.61 26.4799 218.737 26.3391L218.842 27.3951C217.704 27.5828 216.531 27.7237 215.322 27.8175C214.125 27.8997 212.958 27.9525 211.82 27.9759C210.682 27.9994 209.632 28.0111 208.669 28.0111ZM216.889 28.8559H220.514V29.9119H216.889V28.8559ZM213.65 20.0911C214.436 20.0911 215.123 20.2084 215.709 20.4431C216.296 20.666 216.748 20.9887 217.065 21.4111C217.393 21.8218 217.557 22.3087 217.557 22.8719C217.557 23.4234 217.393 23.9103 217.065 24.3327C216.748 24.7551 216.296 25.0778 215.709 25.3007C215.123 25.5236 214.436 25.6351 213.65 25.6351C212.876 25.6351 212.189 25.5236 211.591 25.3007C211.004 25.0778 210.547 24.7551 210.218 24.3327C209.901 23.9103 209.743 23.4234 209.743 22.8719C209.743 22.3087 209.901 21.8218 210.218 21.4111C210.547 20.9887 211.004 20.666 211.591 20.4431C212.189 20.2084 212.876 20.0911 213.65 20.0911ZM213.65 21.1823C212.899 21.1823 212.289 21.3348 211.82 21.6399C211.35 21.945 211.116 22.3556 211.116 22.8719C211.116 23.3764 211.35 23.7812 211.82 24.0863C212.289 24.3914 212.899 24.5439 213.65 24.5439C214.389 24.5439 214.994 24.3914 215.463 24.0863C215.932 23.7812 216.167 23.3764 216.167 22.8719C216.167 22.5199 216.061 22.2207 215.85 21.9743C215.639 21.7279 215.346 21.5343 214.97 21.3935C214.595 21.2527 214.155 21.1823 213.65 21.1823ZM235.526 19.4399H236.986V35.3503H235.526V19.4399ZM236.599 25.8991H239.521V27.1135H236.599V25.8991ZM231.46 21.1471H232.886C232.886 22.6607 232.639 24.1098 232.146 25.4943C231.654 26.8671 230.879 28.1402 229.823 29.3135C228.767 30.4751 227.377 31.4842 225.652 32.3407L224.842 31.2143C226.321 30.4751 227.547 29.6127 228.521 28.6271C229.506 27.6298 230.24 26.5268 230.721 25.3183C231.214 24.0981 231.46 22.7839 231.46 21.3759V21.1471ZM225.582 21.1471H232.199V22.3615H225.582V21.1471ZM252.526 19.4399H253.987V27.9935H252.526V19.4399ZM243.743 28.7855H245.169V30.7039H252.543V28.7855H253.987V35.1567H243.743V28.7855ZM245.169 31.8655V33.9599H252.543V31.8655H245.169ZM245.451 20.1967C246.26 20.1967 246.976 20.3551 247.598 20.6719C248.22 20.977 248.707 21.4053 249.059 21.9567C249.422 22.5082 249.604 23.1476 249.604 23.8751C249.604 24.5909 249.422 25.2303 249.059 25.7935C248.707 26.345 248.22 26.7732 247.598 27.0783C246.976 27.3834 246.26 27.5359 245.451 27.5359C244.653 27.5359 243.937 27.3834 243.303 27.0783C242.682 26.7732 242.189 26.345 241.825 25.7935C241.473 25.2303 241.297 24.5909 241.297 23.8751C241.297 23.1476 241.473 22.5082 241.825 21.9567C242.189 21.4053 242.682 20.977 243.303 20.6719C243.937 20.3551 244.653 20.1967 245.451 20.1967ZM245.451 21.4287C244.923 21.4287 244.453 21.5343 244.043 21.7455C243.632 21.945 243.309 22.2324 243.075 22.6079C242.84 22.9716 242.723 23.394 242.723 23.8751C242.723 24.3444 242.84 24.7668 243.075 25.1423C243.309 25.506 243.632 25.7935 244.043 26.0047C244.453 26.2159 244.923 26.3215 245.451 26.3215C245.979 26.3215 246.448 26.2159 246.859 26.0047C247.269 25.7935 247.592 25.506 247.827 25.1423C248.061 24.7668 248.179 24.3444 248.179 23.8751C248.179 23.394 248.061 22.9716 247.827 22.6079C247.592 22.2324 247.269 21.945 246.859 21.7455C246.448 21.5343 245.979 21.4287 245.451 21.4287Z" fill="white"/>
</svg>
