<svg width="32" height="32" viewBox="0 0 32 32" fill="none" xmlns="http://www.w3.org/2000/svg">
<path d="M0 4C0 1.79086 1.79086 0 4 0H28C30.2091 0 32 1.79086 32 4V28C32 30.2091 30.2091 32 28 32H4C1.79086 32 0 30.2091 0 28V4Z" fill="#009689"/>
<g clip-path="url(#clip0_529_24)">
<path d="M24.3332 15.9993H22.2665C21.9023 15.9986 21.5479 16.1171 21.2574 16.3368C20.967 16.5565 20.7565 16.8653 20.6582 17.216L18.6998 24.1827C18.6872 24.226 18.6609 24.264 18.6248 24.291C18.5888 24.3181 18.5449 24.3327 18.4998 24.3327C18.4548 24.3327 18.4109 24.3181 18.3748 24.291C18.3388 24.264 18.3125 24.226 18.2998 24.1827L13.6998 7.81602C13.6872 7.77274 13.6609 7.73473 13.6248 7.70768C13.5888 7.68064 13.5449 7.66602 13.4998 7.66602C13.4548 7.66602 13.4109 7.68064 13.3748 7.70768C13.3388 7.73473 13.3125 7.77274 13.2998 7.81602L11.3415 14.7827C11.2436 15.132 11.0343 15.4398 10.7456 15.6594C10.4568 15.8789 10.1043 15.9983 9.7415 15.9993H7.6665" stroke="white" stroke-width="1.66667" stroke-linecap="round" stroke-linejoin="round"/>
</g>
<defs>
<clipPath id="clip0_529_24">
<rect width="20" height="20" fill="white" transform="translate(6 6)"/>
</clipPath>
</defs>
</svg>
