<svg width="383" height="48" viewBox="0 0 383 48" fill="none" xmlns="http://www.w3.org/2000/svg">
<path d="M0 14C0 6.26803 6.26801 0 14 0H368.344C376.076 0 382.344 6.26802 382.344 14V33.9948C382.344 41.7268 376.076 47.9948 368.344 47.9948H14C6.26801 47.9948 0 41.7268 0 33.9948V14Z" fill="#1E2939"/>
<path d="M144.494 25.0211H145.656V27.1071H144.494V25.0211ZM150.038 17.4191H151.2V30.0891H150.038V17.4191ZM141.12 27.6811L140.952 26.7011C141.755 26.6917 142.623 26.6824 143.556 26.6731C144.489 26.6637 145.441 26.6311 146.412 26.5751C147.383 26.5191 148.321 26.4304 149.226 26.3091L149.31 27.1771C148.377 27.3264 147.429 27.4384 146.468 27.5131C145.507 27.5784 144.569 27.6251 143.654 27.6531C142.739 27.6717 141.895 27.6811 141.12 27.6811ZM141.218 18.9731H148.904V19.9111H141.218V18.9731ZM145.054 20.6251C145.661 20.6251 146.193 20.7231 146.65 20.9191C147.107 21.1151 147.462 21.3904 147.714 21.7451C147.975 22.0904 148.106 22.5011 148.106 22.9771C148.106 23.4437 147.975 23.8544 147.714 24.2091C147.462 24.5637 147.107 24.8391 146.65 25.0351C146.193 25.2217 145.661 25.3151 145.054 25.3151C144.457 25.3151 143.929 25.2217 143.472 25.0351C143.015 24.8391 142.66 24.5637 142.408 24.2091C142.156 23.8544 142.03 23.4437 142.03 22.9771C142.03 22.5011 142.156 22.0904 142.408 21.7451C142.66 21.3904 143.015 21.1151 143.472 20.9191C143.929 20.7231 144.457 20.6251 145.054 20.6251ZM145.054 21.5351C144.494 21.5351 144.032 21.6657 143.668 21.9271C143.304 22.1884 143.122 22.5384 143.122 22.9771C143.122 23.4064 143.304 23.7517 143.668 24.0131C144.032 24.2744 144.494 24.4051 145.054 24.4051C145.633 24.4051 146.099 24.2744 146.454 24.0131C146.818 23.7517 147 23.4064 147 22.9771C147 22.5384 146.818 22.1884 146.454 21.9271C146.099 21.6657 145.633 21.5351 145.054 21.5351ZM144.494 17.4331H145.656V19.4771H144.494V17.4331ZM157.345 23.8031H158.507V26.6171H157.345V23.8031ZM162.959 17.4331H164.121V27.0511H162.959V17.4331ZM155.483 28.8571H164.429V29.8091H155.483V28.8571ZM155.483 26.1131H156.645V29.1091H155.483V26.1131ZM153.845 24.2371L153.691 23.2711C154.475 23.2711 155.324 23.2664 156.239 23.2571C157.163 23.2384 158.106 23.2057 159.067 23.1591C160.028 23.1031 160.957 23.0191 161.853 22.9071L161.937 23.7471C161.032 23.8964 160.098 24.0084 159.137 24.0831C158.185 24.1484 157.256 24.1904 156.351 24.2091C155.446 24.2277 154.61 24.2371 153.845 24.2371ZM160.383 24.9091H163.267V25.7491H160.383V24.9091ZM157.807 17.9371C158.432 17.9371 158.978 18.0304 159.445 18.2171C159.912 18.3944 160.271 18.6511 160.523 18.9871C160.784 19.3137 160.915 19.7011 160.915 20.1491C160.915 20.5877 160.784 20.9751 160.523 21.3111C160.271 21.6471 159.912 21.9037 159.445 22.0811C158.978 22.2584 158.432 22.3471 157.807 22.3471C157.191 22.3471 156.645 22.2584 156.169 22.0811C155.702 21.9037 155.338 21.6471 155.077 21.3111C154.825 20.9751 154.699 20.5877 154.699 20.1491C154.699 19.7011 154.825 19.3137 155.077 18.9871C155.338 18.6511 155.702 18.3944 156.169 18.2171C156.645 18.0304 157.191 17.9371 157.807 17.9371ZM157.807 18.8051C157.21 18.8051 156.724 18.9264 156.351 19.1691C155.978 19.4117 155.791 19.7384 155.791 20.1491C155.791 20.5504 155.978 20.8724 156.351 21.1151C156.724 21.3577 157.21 21.4791 157.807 21.4791C158.395 21.4791 158.876 21.3577 159.249 21.1151C159.622 20.8724 159.809 20.5504 159.809 20.1491C159.809 19.8691 159.725 19.6311 159.557 19.4351C159.389 19.2391 159.156 19.0851 158.857 18.9731C158.558 18.8611 158.208 18.8051 157.807 18.8051ZM175.208 17.4191H176.37V30.0751H175.208V17.4191ZM176.062 22.5571H178.386V23.5231H176.062V22.5571ZM171.974 18.7771H173.108C173.108 19.9811 172.912 21.1337 172.52 22.2351C172.128 23.3271 171.512 24.3397 170.672 25.2731C169.832 26.1971 168.726 26.9997 167.354 27.6811L166.71 26.7851C167.886 26.1971 168.861 25.5111 169.636 24.7271C170.42 23.9337 171.003 23.0564 171.386 22.0951C171.778 21.1244 171.974 20.0791 171.974 18.9591V18.7771ZM167.298 18.7771H172.562V19.7431H167.298V18.7771ZM188.731 17.4191H189.893V24.2231H188.731V17.4191ZM181.745 24.8531H182.879V26.3791H188.745V24.8531H189.893V29.9211H181.745V24.8531ZM182.879 27.3031V28.9691H188.745V27.3031H182.879ZM183.103 18.0211C183.747 18.0211 184.316 18.1471 184.811 18.3991C185.306 18.6417 185.693 18.9824 185.973 19.4211C186.262 19.8597 186.407 20.3684 186.407 20.9471C186.407 21.5164 186.262 22.0251 185.973 22.4731C185.693 22.9117 185.306 23.2524 184.811 23.4951C184.316 23.7377 183.747 23.8591 183.103 23.8591C182.468 23.8591 181.899 23.7377 181.395 23.4951C180.9 23.2524 180.508 22.9117 180.219 22.4731C179.939 22.0251 179.799 21.5164 179.799 20.9471C179.799 20.3684 179.939 19.8597 180.219 19.4211C180.508 18.9824 180.9 18.6417 181.395 18.3991C181.899 18.1471 182.468 18.0211 183.103 18.0211ZM183.103 19.0011C182.683 19.0011 182.31 19.0851 181.983 19.2531C181.656 19.4117 181.4 19.6404 181.213 19.9391C181.026 20.2284 180.933 20.5644 180.933 20.9471C180.933 21.3204 181.026 21.6564 181.213 21.9551C181.4 22.2444 181.656 22.4731 181.983 22.6411C182.31 22.8091 182.683 22.8931 183.103 22.8931C183.523 22.8931 183.896 22.8091 184.223 22.6411C184.55 22.4731 184.806 22.2444 184.993 21.9551C185.18 21.6564 185.273 21.3204 185.273 20.9471C185.273 20.5644 185.18 20.2284 184.993 19.9391C184.806 19.6404 184.55 19.4117 184.223 19.2531C183.896 19.0851 183.523 19.0011 183.103 19.0011ZM200.98 17.4191H202.128V30.0891H200.98V17.4191ZM201.862 22.6271H204.2V23.6071H201.862V22.6271ZM192.328 19.4491H199.79V20.4011H192.328V19.4491ZM196.122 21.4371C196.719 21.4371 197.246 21.5631 197.704 21.8151C198.17 22.0671 198.534 22.4124 198.796 22.8511C199.066 23.2804 199.202 23.7797 199.202 24.3491C199.202 24.9184 199.066 25.4224 198.796 25.8611C198.534 26.2997 198.17 26.6451 197.704 26.8971C197.246 27.1397 196.719 27.2611 196.122 27.2611C195.524 27.2611 194.992 27.1397 194.526 26.8971C194.068 26.6451 193.704 26.2997 193.434 25.8611C193.163 25.4224 193.028 24.9184 193.028 24.3491C193.028 23.7797 193.163 23.2804 193.434 22.8511C193.704 22.4124 194.068 22.0671 194.526 21.8151C194.992 21.5631 195.524 21.4371 196.122 21.4371ZM196.122 22.4031C195.739 22.4031 195.398 22.4871 195.1 22.6551C194.801 22.8231 194.563 23.0517 194.386 23.3411C194.218 23.6304 194.134 23.9664 194.134 24.3491C194.134 24.7317 194.218 25.0724 194.386 25.3711C194.563 25.6604 194.801 25.8891 195.1 26.0571C195.398 26.2157 195.739 26.2951 196.122 26.2951C196.495 26.2951 196.831 26.2157 197.13 26.0571C197.428 25.8891 197.662 25.6604 197.83 25.3711C198.007 25.0724 198.096 24.7317 198.096 24.3491C198.096 23.9664 198.007 23.6304 197.83 23.3411C197.662 23.0517 197.428 22.8231 197.13 22.6551C196.831 22.4871 196.495 22.4031 196.122 22.4031ZM195.52 17.5731H196.682V19.8691H195.52V17.5731ZM214.503 17.4191H215.665V30.0891H214.503V17.4191ZM210.793 18.7911H211.941C211.941 19.7057 211.829 20.5877 211.605 21.4371C211.39 22.2864 211.049 23.0937 210.583 23.8591C210.116 24.6151 209.509 25.3197 208.763 25.9731C208.016 26.6264 207.111 27.2097 206.047 27.7231L205.431 26.7851C206.653 26.1971 207.661 25.5111 208.455 24.7271C209.248 23.9431 209.836 23.0704 210.219 22.1091C210.601 21.1384 210.793 20.0931 210.793 18.9731V18.7911ZM206.019 18.7911H211.283V19.7291H206.019V18.7911Z" fill="white"/>
<path d="M229.503 23.998H238.83" stroke="white" stroke-width="1.33247" stroke-linecap="round" stroke-linejoin="round"/>
<path d="M234.167 19.334L238.83 23.9976L234.167 28.6612" stroke="white" stroke-width="1.33247" stroke-linecap="round" stroke-linejoin="round"/>
</svg>
