<svg width="50" height="50" viewBox="0 0 50 50" fill="none" xmlns="http://www.w3.org/2000/svg">
<mask id="path-1-inside-1_133_1104" fill="white">
<path d="M0 24.8889C0 11.1431 11.1431 0 24.8889 0C38.6346 0 49.7778 11.1431 49.7778 24.8889C49.7778 38.6346 38.6346 49.7778 24.8889 49.7778C11.1431 49.7778 0 38.6346 0 24.8889Z"/>
</mask>
<path d="M0 24.8889C0 11.1431 11.1431 0 24.8889 0C38.6346 0 49.7778 11.1431 49.7778 24.8889C49.7778 38.6346 38.6346 49.7778 24.8889 49.7778C11.1431 49.7778 0 38.6346 0 24.8889Z" fill="white"/>
<path d="M24.8889 49.7778V48.8889C11.6341 48.8889 0.888889 38.1437 0.888889 24.8889H0H-0.888889C-0.888889 39.1256 10.6522 50.6667 24.8889 50.6667V49.7778ZM49.7778 24.8889H48.8889C48.8889 38.1437 38.1437 48.8889 24.8889 48.8889V49.7778V50.6667C39.1256 50.6667 50.6667 39.1256 50.6667 24.8889H49.7778ZM24.8889 0V0.888889C38.1437 0.888889 48.8889 11.6341 48.8889 24.8889H49.7778H50.6667C50.6667 10.6522 39.1256 -0.888889 24.8889 -0.888889V0ZM24.8889 0V-0.888889C10.6522 -0.888889 -0.888889 10.6522 -0.888889 24.8889H0H0.888889C0.888889 11.6341 11.6341 0.888889 24.8889 0.888889V0Z" fill="#E5E7EB" mask="url(#path-1-inside-1_133_1104)"/>
<path d="M23.8889 32.8887C22.133 32.894 20.4391 32.2392 19.1434 31.0541C17.8477 29.869 17.0447 28.2402 16.8936 26.4908C16.7426 24.7413 17.2546 22.999 18.328 21.6094C19.4015 20.2198 20.958 19.2844 22.6889 18.9887C28.3889 17.8887 29.8889 17.3687 31.8889 14.8887C32.8889 16.8887 33.8889 19.0687 33.8889 22.8887C33.8889 28.3887 29.1089 32.8887 23.8889 32.8887Z" stroke="#4A5565" stroke-width="2" stroke-linecap="round" stroke-linejoin="round"/>
<path d="M14.8889 33.8887C14.8889 30.8887 16.7389 28.5287 19.9689 27.8887C22.3889 27.4087 24.8889 25.8887 25.8889 24.8887" stroke="#4A5565" stroke-width="2" stroke-linecap="round" stroke-linejoin="round"/>
</svg>
