<svg width="48" height="48" viewBox="0 0 48 48" fill="none" xmlns="http://www.w3.org/2000/svg">
<path d="M0 24C0 10.7452 10.7452 0 24 0C37.2548 0 48 10.7452 48 24C48 37.2548 37.2548 48 24 48C10.7452 48 0 37.2548 0 24Z" fill="#F3F4F6"/>
<path d="M27 33V28C27 27.7348 26.8946 27.4804 26.7071 27.2929C26.5196 27.1054 26.2652 27 26 27H22C21.7348 27 21.4804 27.1054 21.2929 27.2929C21.1054 27.4804 21 27.7348 21 28V33" stroke="#4A5565" stroke-width="2" stroke-linecap="round" stroke-linejoin="round"/>
<path d="M29.774 22.31C29.5655 22.1104 29.2881 21.999 28.9995 21.999C28.7109 21.999 28.4335 22.1104 28.225 22.31C27.76 22.7535 27.1421 23.001 26.4995 23.001C25.8569 23.001 25.239 22.7535 24.774 22.31C24.5656 22.1107 24.2884 21.9995 24 21.9995C23.7117 21.9995 23.4344 22.1107 23.226 22.31C22.761 22.7538 22.1428 23.0014 21.5 23.0014C20.8572 23.0014 20.2391 22.7538 19.774 22.31C19.5655 22.1104 19.2881 21.999 18.9995 21.999C18.7109 21.999 18.4335 22.1104 18.225 22.31C17.7759 22.7386 17.1833 22.9848 16.5626 23.0005C15.942 23.0163 15.3377 22.8006 14.8673 22.3954C14.397 21.9901 14.0942 21.4244 14.018 20.8082C13.9418 20.1921 14.0976 19.5696 14.455 19.062L17.344 14.878C17.5273 14.6075 17.7741 14.3861 18.0628 14.233C18.3515 14.0799 18.6733 13.9999 19 14H29C29.3258 13.9999 29.6467 14.0793 29.9348 14.2315C30.2229 14.3836 30.4694 14.6039 30.653 14.873L33.548 19.065C33.9055 19.573 34.0611 20.196 33.9844 20.8124C33.9077 21.4289 33.6043 21.9947 33.1332 22.3997C32.6621 22.8046 32.0571 23.0197 31.4361 23.0029C30.8151 22.9861 30.2226 22.7388 29.774 22.309" stroke="#4A5565" stroke-width="2" stroke-linecap="round" stroke-linejoin="round"/>
<path d="M16 22.9492V30.9992C16 31.5297 16.2107 32.0384 16.5858 32.4134C16.9609 32.7885 17.4696 32.9992 18 32.9992H30C30.5304 32.9992 31.0391 32.7885 31.4142 32.4134C31.7893 32.0384 32 31.5297 32 30.9992V22.9492" stroke="#4A5565" stroke-width="2" stroke-linecap="round" stroke-linejoin="round"/>
</svg>
