<svg width="50" height="50" viewBox="0 0 50 50" fill="none" xmlns="http://www.w3.org/2000/svg">
<mask id="path-1-inside-1_245_368" fill="white">
<path d="M0 25C0 11.1929 11.1929 0 25 0C38.8071 0 50 11.1929 50 25C50 38.8071 38.8071 50 25 50C11.1929 50 0 38.8071 0 25Z"/>
</mask>
<path d="M0 25C0 11.1929 11.1929 0 25 0C38.8071 0 50 11.1929 50 25C50 38.8071 38.8071 50 25 50C11.1929 50 0 38.8071 0 25Z" fill="white"/>
<path d="M25 50V49C11.7452 49 1 38.2548 1 25H0H-1C-1 39.3594 10.6406 51 25 51V50ZM50 25H49C49 38.2548 38.2548 49 25 49V50V51C39.3594 51 51 39.3594 51 25H50ZM25 0V1C38.2548 1 49 11.7452 49 25H50H51C51 10.6406 39.3594 -1 25 -1V0ZM25 0V-1C10.6406 -1 -1 10.6406 -1 25H0H1C1 11.7452 11.7452 1 25 1V0Z" fill="#E5E7EB" mask="url(#path-1-inside-1_245_368)"/>
<path d="M17 27.0007C16.8108 27.0013 16.6252 26.9482 16.4649 26.8476C16.3047 26.747 16.1762 26.603 16.0945 26.4323C16.0129 26.2616 15.9813 26.0712 16.0035 25.8833C16.0257 25.6954 16.1008 25.5176 16.22 25.3707L26.12 15.1707C26.1943 15.0849 26.2955 15.027 26.407 15.0064C26.5185 14.9858 26.6337 15.0037 26.7337 15.0572C26.8337 15.1106 26.9126 15.1965 26.9573 15.3008C27.0021 15.405 27.0101 15.5213 26.98 15.6307L25.06 21.6507C25.0034 21.8022 24.9844 21.9652 25.0046 22.1257C25.0248 22.2861 25.0837 22.4393 25.1761 22.5721C25.2685 22.7048 25.3918 22.8132 25.5353 22.8878C25.6788 22.9625 25.8382 23.0012 26 23.0007H33C33.1892 23 33.3748 23.0531 33.535 23.1537C33.6953 23.2543 33.8238 23.3983 33.9054 23.569C33.9871 23.7397 34.0187 23.9301 33.9965 24.118C33.9743 24.3059 33.8992 24.4837 33.78 24.6307L23.88 34.8307C23.8057 34.9164 23.7045 34.9743 23.593 34.9949C23.4815 35.0155 23.3663 34.9976 23.2663 34.9441C23.1663 34.8907 23.0874 34.8048 23.0427 34.7005C22.9979 34.5963 22.9899 34.48 23.02 34.3707L24.94 28.3507C24.9966 28.1991 25.0156 28.0361 24.9954 27.8756C24.9752 27.7152 24.9163 27.562 24.8239 27.4292C24.7315 27.2965 24.6082 27.1881 24.4647 27.1135C24.3212 27.0388 24.1617 27.0001 24 27.0007H17Z" stroke="#4A5565" stroke-width="2" stroke-linecap="round" stroke-linejoin="round"/>
</svg>
