<svg width="407" height="80" viewBox="0 0 407 80" fill="none" xmlns="http://www.w3.org/2000/svg">
<g filter="url(#filter0_dd_28_436)">
<path d="M12 18C12 9.16345 19.1634 2 28 2H378.535C387.371 2 394.535 9.16344 394.535 18V41.9954C394.535 50.8319 387.371 57.9954 378.535 57.9954H28C19.1634 57.9954 12 50.8319 12 41.9954V18Z" fill="url(#paint0_linear_28_436)"/>
<path d="M152.99 33.556H164.47V34.522H152.99V33.556ZM158.128 30.854H159.276V33.962H158.128V30.854ZM154.39 24.358H163.042V28.194H155.566V30.728H154.418V27.27H161.894V25.31H154.39V24.358ZM154.418 30.238H163.336V31.19H154.418V30.238ZM167.114 24.764H175.262V25.716H167.114V24.764ZM165.868 33.276H177.306V34.242H165.868V33.276ZM174.632 24.764H175.78V26.038C175.78 26.57 175.771 27.1394 175.752 27.746C175.743 28.3434 175.706 29.006 175.64 29.734C175.575 30.462 175.463 31.2834 175.304 32.198L174.128 32.072C174.296 31.2134 174.413 30.4247 174.478 29.706C174.553 28.9874 174.595 28.3247 174.604 27.718C174.623 27.1114 174.632 26.5514 174.632 26.038V24.764ZM187.959 23.434H189.121V32.674H187.959V23.434ZM180.987 34.858H189.513V35.81H180.987V34.858ZM180.987 31.736H182.149V35.18H180.987V31.736ZM182.331 24.316C182.966 24.316 183.531 24.4467 184.025 24.708C184.52 24.9694 184.912 25.338 185.201 25.814C185.491 26.2807 185.635 26.8174 185.635 27.424C185.635 28.0307 185.491 28.572 185.201 29.048C184.912 29.5147 184.52 29.8834 184.025 30.154C183.531 30.4154 182.966 30.546 182.331 30.546C181.706 30.546 181.141 30.4154 180.637 30.154C180.143 29.8834 179.751 29.5147 179.461 29.048C179.172 28.572 179.027 28.0307 179.027 27.424C179.027 26.8174 179.172 26.2807 179.461 25.814C179.751 25.338 180.143 24.9694 180.637 24.708C181.141 24.4467 181.706 24.316 182.331 24.316ZM182.331 25.324C181.921 25.324 181.552 25.4127 181.225 25.59C180.899 25.7674 180.637 26.0147 180.441 26.332C180.255 26.6494 180.161 27.0134 180.161 27.424C180.161 27.844 180.255 28.2127 180.441 28.53C180.637 28.838 180.899 29.0807 181.225 29.258C181.552 29.4354 181.921 29.524 182.331 29.524C182.742 29.524 183.111 29.4354 183.437 29.258C183.773 29.0807 184.035 28.838 184.221 28.53C184.408 28.2127 184.501 27.844 184.501 27.424C184.501 27.0134 184.408 26.6494 184.221 26.332C184.035 26.0147 183.773 25.7674 183.437 25.59C183.111 25.4127 182.742 25.324 182.331 25.324ZM200.208 23.42H201.356V36.09H200.208V23.42ZM201.09 28.628H203.428V29.608H201.09V28.628ZM191.556 25.45H199.018V26.402H191.556V25.45ZM195.35 27.438C195.948 27.438 196.475 27.564 196.932 27.816C197.399 28.068 197.763 28.4134 198.024 28.852C198.295 29.2814 198.43 29.7807 198.43 30.35C198.43 30.9194 198.295 31.4234 198.024 31.862C197.763 32.3007 197.399 32.646 196.932 32.898C196.475 33.1407 195.948 33.262 195.35 33.262C194.753 33.262 194.221 33.1407 193.754 32.898C193.297 32.646 192.933 32.3007 192.662 31.862C192.392 31.4234 192.256 30.9194 192.256 30.35C192.256 29.7807 192.392 29.2814 192.662 28.852C192.933 28.4134 193.297 28.068 193.754 27.816C194.221 27.564 194.753 27.438 195.35 27.438ZM195.35 28.404C194.968 28.404 194.627 28.488 194.328 28.656C194.03 28.824 193.792 29.0527 193.614 29.342C193.446 29.6314 193.362 29.9674 193.362 30.35C193.362 30.7327 193.446 31.0734 193.614 31.372C193.792 31.6614 194.03 31.89 194.328 32.058C194.627 32.2167 194.968 32.296 195.35 32.296C195.724 32.296 196.06 32.2167 196.358 32.058C196.657 31.89 196.89 31.6614 197.058 31.372C197.236 31.0734 197.324 30.7327 197.324 30.35C197.324 29.9674 197.236 29.6314 197.058 29.342C196.89 29.0527 196.657 28.824 196.358 28.656C196.06 28.488 195.724 28.404 195.35 28.404ZM194.748 23.574H195.91V25.87H194.748V23.574ZM213.731 23.42H214.893V36.09H213.731V23.42ZM210.021 24.792H211.169C211.169 25.7067 211.057 26.5887 210.833 27.438C210.619 28.2874 210.278 29.0947 209.811 29.86C209.345 30.616 208.738 31.3207 207.991 31.974C207.245 32.6274 206.339 33.2107 205.275 33.724L204.659 32.786C205.882 32.198 206.89 31.512 207.683 30.728C208.477 29.944 209.065 29.0714 209.447 28.11C209.83 27.1394 210.021 26.094 210.021 24.974V24.792ZM205.247 24.792H210.511V25.73H205.247V24.792Z" fill="white"/>
<path d="M241.583 29.998H250.913" stroke="white" stroke-width="1.33295" stroke-linecap="round" stroke-linejoin="round"/>
<path d="M246.248 25.332L250.913 29.9973L246.248 34.6627" stroke="white" stroke-width="1.33295" stroke-linecap="round" stroke-linejoin="round"/>
</g>
<defs>
<filter id="filter0_dd_28_436" x="0" y="0" width="406.535" height="79.9951" filterUnits="userSpaceOnUse" color-interpolation-filters="sRGB">
<feFlood flood-opacity="0" result="BackgroundImageFix"/>
<feColorMatrix in="SourceAlpha" type="matrix" values="0 0 0 0 0 0 0 0 0 0 0 0 0 0 0 0 0 0 127 0" result="hardAlpha"/>
<feMorphology radius="4" operator="erode" in="SourceAlpha" result="effect1_dropShadow_28_436"/>
<feOffset dy="4"/>
<feGaussianBlur stdDeviation="3"/>
<feComposite in2="hardAlpha" operator="out"/>
<feColorMatrix type="matrix" values="0 0 0 0 0 0 0 0 0 0 0 0 0 0 0 0 0 0 0.1 0"/>
<feBlend mode="normal" in2="BackgroundImageFix" result="effect1_dropShadow_28_436"/>
<feColorMatrix in="SourceAlpha" type="matrix" values="0 0 0 0 0 0 0 0 0 0 0 0 0 0 0 0 0 0 127 0" result="hardAlpha"/>
<feMorphology radius="3" operator="erode" in="SourceAlpha" result="effect2_dropShadow_28_436"/>
<feOffset dy="10"/>
<feGaussianBlur stdDeviation="7.5"/>
<feComposite in2="hardAlpha" operator="out"/>
<feColorMatrix type="matrix" values="0 0 0 0 0 0 0 0 0 0 0 0 0 0 0 0 0 0 0.1 0"/>
<feBlend mode="normal" in2="effect1_dropShadow_28_436" result="effect2_dropShadow_28_436"/>
<feBlend mode="normal" in="SourceGraphic" in2="effect2_dropShadow_28_436" result="shape"/>
</filter>
<linearGradient id="paint0_linear_28_436" x1="12" y1="29.9977" x2="394.535" y2="29.9977" gradientUnits="userSpaceOnUse">
<stop stop-color="#00D492"/>
<stop offset="0.5" stop-color="#00D5BE"/>
<stop offset="1" stop-color="#00D3F2"/>
</linearGradient>
</defs>
</svg>
