<svg width="383" height="48" viewBox="0 0 383 48" fill="none" xmlns="http://www.w3.org/2000/svg">
<path d="M0 14C0 6.26803 6.26801 0 14 0H368.344C376.076 0 382.344 6.26802 382.344 14V33.9948C382.344 41.7268 376.076 47.9948 368.344 47.9948H14C6.26801 47.9948 0 41.7268 0 33.9948V14Z" fill="#1E2939"/>
<path d="M140.882 27.5551H152.362V28.5211H140.882V27.5551ZM146.02 24.8531H147.168V27.9611H146.02V24.8531ZM142.282 18.3571H150.934V22.1931H143.458V24.7271H142.31V21.2691H149.786V19.3091H142.282V18.3571ZM142.31 24.2371H151.228V25.1891H142.31V24.2371ZM155.007 18.7631H163.155V19.7151H155.007V18.7631ZM153.761 27.2751H165.199V28.2411H153.761V27.2751ZM162.525 18.7631H163.673V20.0371C163.673 20.5691 163.664 21.1384 163.645 21.7451C163.636 22.3424 163.598 23.0051 163.533 23.7331C163.468 24.4611 163.356 25.2824 163.197 26.1971L162.021 26.0711C162.189 25.2124 162.306 24.4237 162.371 23.7051C162.446 22.9864 162.488 22.3237 162.497 21.7171C162.516 21.1104 162.525 20.5504 162.525 20.0371V18.7631ZM175.852 17.4331H177.014V26.6731H175.852V17.4331ZM168.88 28.8571H177.406V29.8091H168.88V28.8571ZM168.88 25.7351H170.042V29.1791H168.88V25.7351ZM170.224 18.3151C170.859 18.3151 171.423 18.4457 171.918 18.7071C172.413 18.9684 172.805 19.3371 173.094 19.8131C173.383 20.2797 173.528 20.8164 173.528 21.4231C173.528 22.0297 173.383 22.5711 173.094 23.0471C172.805 23.5137 172.413 23.8824 171.918 24.1531C171.423 24.4144 170.859 24.5451 170.224 24.5451C169.599 24.5451 169.034 24.4144 168.53 24.1531C168.035 23.8824 167.643 23.5137 167.354 23.0471C167.065 22.5711 166.92 22.0297 166.92 21.4231C166.92 20.8164 167.065 20.2797 167.354 19.8131C167.643 19.3371 168.035 18.9684 168.53 18.7071C169.034 18.4457 169.599 18.3151 170.224 18.3151ZM170.224 19.3231C169.813 19.3231 169.445 19.4117 169.118 19.5891C168.791 19.7664 168.53 20.0137 168.334 20.3311C168.147 20.6484 168.054 21.0124 168.054 21.4231C168.054 21.8431 168.147 22.2117 168.334 22.5291C168.53 22.8371 168.791 23.0797 169.118 23.2571C169.445 23.4344 169.813 23.5231 170.224 23.5231C170.635 23.5231 171.003 23.4344 171.33 23.2571C171.666 23.0797 171.927 22.8371 172.114 22.5291C172.301 22.2117 172.394 21.8431 172.394 21.4231C172.394 21.0124 172.301 20.6484 172.114 20.3311C171.927 20.0137 171.666 19.7664 171.33 19.5891C171.003 19.4117 170.635 19.3231 170.224 19.3231ZM188.101 17.4191H189.249V30.0891H188.101V17.4191ZM188.983 22.6271H191.321V23.6071H188.983V22.6271ZM179.449 19.4491H186.911V20.4011H179.449V19.4491ZM183.243 21.4371C183.84 21.4371 184.368 21.5631 184.825 21.8151C185.292 22.0671 185.656 22.4124 185.917 22.8511C186.188 23.2804 186.323 23.7797 186.323 24.3491C186.323 24.9184 186.188 25.4224 185.917 25.8611C185.656 26.2997 185.292 26.6451 184.825 26.8971C184.368 27.1397 183.84 27.2611 183.243 27.2611C182.646 27.2611 182.114 27.1397 181.647 26.8971C181.19 26.6451 180.826 26.2997 180.555 25.8611C180.284 25.4224 180.149 24.9184 180.149 24.3491C180.149 23.7797 180.284 23.2804 180.555 22.8511C180.826 22.4124 181.19 22.0671 181.647 21.8151C182.114 21.5631 182.646 21.4371 183.243 21.4371ZM183.243 22.4031C182.86 22.4031 182.52 22.4871 182.221 22.6551C181.922 22.8231 181.684 23.0517 181.507 23.3411C181.339 23.6304 181.255 23.9664 181.255 24.3491C181.255 24.7317 181.339 25.0724 181.507 25.3711C181.684 25.6604 181.922 25.8891 182.221 26.0571C182.52 26.2157 182.86 26.2951 183.243 26.2951C183.616 26.2951 183.952 26.2157 184.251 26.0571C184.55 25.8891 184.783 25.6604 184.951 25.3711C185.128 25.0724 185.217 24.7317 185.217 24.3491C185.217 23.9664 185.128 23.6304 184.951 23.3411C184.783 23.0517 184.55 22.8231 184.251 22.6551C183.952 22.4871 183.616 22.4031 183.243 22.4031ZM182.641 17.5731H183.803V19.8691H182.641V17.5731ZM201.624 17.4191H202.786V30.0891H201.624V17.4191ZM197.914 18.7911H199.062C199.062 19.7057 198.95 20.5877 198.726 21.4371C198.511 22.2864 198.17 23.0937 197.704 23.8591C197.237 24.6151 196.63 25.3197 195.884 25.9731C195.137 26.6264 194.232 27.2097 193.168 27.7231L192.552 26.7851C193.774 26.1971 194.782 25.5111 195.576 24.7271C196.369 23.9431 196.957 23.0704 197.34 22.1091C197.722 21.1384 197.914 20.0931 197.914 18.9731V18.7911ZM193.14 18.7911H198.404V19.7291H193.14V18.7911Z" fill="white"/>
<path d="M229.503 23.998H238.83" stroke="white" stroke-width="1.33247" stroke-linecap="round" stroke-linejoin="round"/>
<path d="M234.167 19.334L238.83 23.9976L234.167 28.6612" stroke="white" stroke-width="1.33247" stroke-linecap="round" stroke-linejoin="round"/>
</svg>
