<svg width="433" height="218" viewBox="0 0 433 218" fill="none" xmlns="http://www.w3.org/2000/svg">
<mask id="path-1-inside-1_145_89" fill="white">
<path d="M0 14C0 6.26802 6.26801 0 14 0H418.031C425.763 0 432.031 6.26801 432.031 14V203.643C432.031 211.375 425.763 217.643 418.031 217.643H14C6.26802 217.643 0 211.375 0 203.643V14Z"/>
</mask>
<path d="M0 14C0 6.26802 6.26801 0 14 0H418.031C425.763 0 432.031 6.26801 432.031 14V203.643C432.031 211.375 425.763 217.643 418.031 217.643H14C6.26802 217.643 0 211.375 0 203.643V14Z" fill="white" fill-opacity="0.1"/>
<path d="M14 0V0.833333H418.031V0V-0.833333H14V0ZM432.031 14H431.198V203.643H432.031H432.865V14H432.031ZM418.031 217.643V216.81H14V217.643V218.477H418.031V217.643ZM0 203.643H0.833333V14H0H-0.833333V203.643H0ZM14 217.643V216.81C6.72826 216.81 0.833333 210.915 0.833333 203.643H0H-0.833333C-0.833333 211.835 5.80778 218.477 14 218.477V217.643ZM432.031 203.643H431.198C431.198 210.915 425.303 216.81 418.031 216.81V217.643V218.477C426.223 218.477 432.865 211.835 432.865 203.643H432.031ZM418.031 0V0.833333C425.303 0.833333 431.198 6.72825 431.198 14H432.031H432.865C432.865 5.80778 426.223 -0.833333 418.031 -0.833333V0ZM14 0V-0.833333C5.80778 -0.833333 -0.833333 5.80779 -0.833333 14H0H0.833333C0.833333 6.72826 6.72825 0.833333 14 0.833333V0Z" fill="white" fill-opacity="0.2" mask="url(#path-1-inside-1_145_89)"/>
<g filter="url(#filter0_d_145_89)">
<path d="M141.505 35.9522H143.185V46.7122H141.505V35.9522ZM142.705 40.6522H145.825V42.0322H142.705V40.6522ZM137.405 47.0922C138.619 47.0922 139.665 47.2322 140.545 47.5122C141.439 47.7789 142.125 48.1722 142.605 48.6922C143.099 49.1989 143.345 49.8189 143.345 50.5522C143.345 51.2722 143.099 51.8922 142.605 52.4122C142.125 52.9322 141.439 53.3255 140.545 53.5922C139.665 53.8722 138.619 54.0122 137.405 54.0122C136.179 54.0122 135.119 53.8722 134.225 53.5922C133.332 53.3255 132.645 52.9322 132.165 52.4122C131.685 51.8922 131.445 51.2722 131.445 50.5522C131.445 49.8189 131.685 49.1989 132.165 48.6922C132.645 48.1722 133.332 47.7789 134.225 47.5122C135.119 47.2322 136.179 47.0922 137.405 47.0922ZM137.405 48.4322C136.512 48.4322 135.739 48.5189 135.085 48.6922C134.445 48.8522 133.945 49.0922 133.585 49.4122C133.239 49.7189 133.065 50.0989 133.065 50.5522C133.065 50.9922 133.239 51.3722 133.585 51.6922C133.945 52.0122 134.445 52.2589 135.085 52.4322C135.739 52.5922 136.512 52.6722 137.405 52.6722C138.285 52.6722 139.052 52.5922 139.705 52.4322C140.359 52.2589 140.859 52.0122 141.205 51.6922C141.552 51.3722 141.725 50.9922 141.725 50.5522C141.725 50.0989 141.552 49.7189 141.205 49.4122C140.859 49.0922 140.359 48.8522 139.705 48.6922C139.052 48.5189 138.285 48.4322 137.405 48.4322ZM129.925 43.9122H131.325C132.592 43.9122 133.692 43.8989 134.625 43.8722C135.559 43.8455 136.419 43.7855 137.205 43.6922C137.992 43.5989 138.792 43.4722 139.605 43.3122L139.785 44.6722C138.959 44.8322 138.139 44.9589 137.325 45.0522C136.525 45.1322 135.645 45.1922 134.685 45.2322C133.725 45.2589 132.605 45.2722 131.325 45.2722H129.925V43.9122ZM129.925 37.3322H137.905V38.6922H131.565V44.8122H129.925V37.3322ZM160.684 35.9722H162.344V49.2322H160.684V35.9722ZM150.724 52.2922H162.904V53.6522H150.724V52.2922ZM150.724 48.0122H152.384V52.9322H150.724V48.0122ZM152.224 36.9722H153.604V38.7922C153.604 39.9789 153.397 41.0922 152.984 42.1322C152.57 43.1589 151.984 44.0655 151.224 44.8522C150.477 45.6255 149.597 46.2189 148.584 46.6322L147.704 45.3122C148.624 44.9522 149.417 44.4389 150.084 43.7722C150.764 43.1055 151.29 42.3455 151.664 41.4922C152.037 40.6255 152.224 39.7255 152.224 38.7922V36.9722ZM152.524 36.9722H153.904V38.7922C153.904 39.4722 154.01 40.1322 154.224 40.7722C154.437 41.3989 154.744 41.9855 155.144 42.5322C155.544 43.0789 156.017 43.5655 156.564 43.9922C157.124 44.4055 157.737 44.7322 158.404 44.9722L157.544 46.2922C156.544 45.9055 155.664 45.3455 154.904 44.6122C154.157 43.8655 153.57 42.9989 153.144 42.0122C152.73 41.0122 152.524 39.9389 152.524 38.7922V36.9722ZM171.782 37.2722C172.729 37.2722 173.562 37.4522 174.282 37.8122C175.015 38.1589 175.589 38.6522 176.002 39.2922C176.415 39.9322 176.622 40.6789 176.622 41.5322C176.622 42.3722 176.415 43.1189 176.002 43.7722C175.589 44.4122 175.015 44.9122 174.282 45.2722C173.562 45.6189 172.729 45.7922 171.782 45.7922C170.849 45.7922 170.015 45.6189 169.282 45.2722C168.549 44.9122 167.969 44.4122 167.542 43.7722C167.129 43.1189 166.922 42.3722 166.922 41.5322C166.922 40.6789 167.129 39.9322 167.542 39.2922C167.969 38.6522 168.549 38.1589 169.282 37.8122C170.015 37.4522 170.849 37.2722 171.782 37.2722ZM171.782 38.7122C171.169 38.7122 170.615 38.8322 170.122 39.0722C169.642 39.2989 169.262 39.6255 168.982 40.0522C168.702 40.4789 168.562 40.9722 168.562 41.5322C168.562 42.0922 168.702 42.5855 168.982 43.0122C169.262 43.4389 169.642 43.7722 170.122 44.0122C170.615 44.2389 171.169 44.3522 171.782 44.3522C172.409 44.3522 172.962 44.2389 173.442 44.0122C173.922 43.7722 174.302 43.4389 174.582 43.0122C174.862 42.5855 175.002 42.0922 175.002 41.5322C175.002 40.9722 174.862 40.4789 174.582 40.0522C174.302 39.6255 173.922 39.2989 173.442 39.0722C172.962 38.8322 172.409 38.7122 171.782 38.7122ZM179.002 35.9522H180.662V54.0722H179.002V35.9522ZM166.242 50.1122L166.022 48.7122C167.129 48.7122 168.342 48.7055 169.662 48.6922C170.982 48.6655 172.342 48.6122 173.742 48.5322C175.155 48.4389 176.515 48.2922 177.822 48.0922L177.962 49.3122C176.602 49.5655 175.222 49.7522 173.822 49.8722C172.435 49.9789 171.095 50.0455 169.802 50.0722C168.509 50.0989 167.322 50.1122 166.242 50.1122ZM203.107 35.9722H204.767V49.3322H203.107V35.9722ZM199.187 41.5322H203.427V42.9122H199.187V41.5322ZM197.507 37.3522H199.267C199.267 38.9122 198.92 40.3389 198.227 41.6322C197.534 42.9122 196.56 44.0255 195.307 44.9722C194.054 45.9189 192.574 46.6789 190.867 47.2522L190.167 45.9122C191.634 45.4189 192.92 44.7855 194.027 44.0122C195.134 43.2389 195.987 42.3455 196.587 41.3322C197.2 40.3189 197.507 39.2189 197.507 38.0322V37.3522ZM191.067 37.3522H198.587V38.7322H191.067V37.3522ZM193.327 52.2922H205.227V53.6522H193.327V52.2922ZM193.327 47.9722H195.007V52.9722H193.327V47.9722ZM220.665 35.9522H222.325V46.7722H220.665V35.9522ZM221.865 40.6322H224.985V42.0122H221.865V40.6322ZM215.665 37.2922H217.425C217.425 38.8255 217.085 40.2189 216.405 41.4722C215.725 42.7255 214.752 43.8055 213.485 44.7122C212.232 45.6189 210.732 46.3255 208.985 46.8322L208.305 45.4922C209.839 45.0389 211.152 44.4455 212.245 43.7122C213.339 42.9789 214.179 42.1322 214.765 41.1722C215.365 40.2122 215.665 39.1655 215.665 38.0322V37.2922ZM209.085 37.2922H216.605V38.6522H209.085V37.2922ZM216.645 46.9922C217.845 46.9922 218.885 47.1322 219.765 47.4122C220.645 47.6922 221.325 48.0989 221.805 48.6322C222.285 49.1522 222.525 49.7789 222.525 50.5122C222.525 51.2322 222.285 51.8522 221.805 52.3722C221.325 52.8922 220.645 53.2922 219.765 53.5722C218.885 53.8655 217.845 54.0122 216.645 54.0122C215.459 54.0122 214.419 53.8655 213.525 53.5722C212.645 53.2922 211.959 52.8922 211.465 52.3722C210.985 51.8522 210.745 51.2322 210.745 50.5122C210.745 49.7789 210.985 49.1522 211.465 48.6322C211.959 48.0989 212.645 47.6922 213.525 47.4122C214.419 47.1322 215.459 46.9922 216.645 46.9922ZM216.645 48.3122C215.792 48.3122 215.045 48.4055 214.405 48.5922C213.765 48.7655 213.265 49.0189 212.905 49.3522C212.559 49.6722 212.385 50.0589 212.385 50.5122C212.385 50.9522 212.559 51.3389 212.905 51.6722C213.265 51.9922 213.765 52.2455 214.405 52.4322C215.045 52.6055 215.792 52.6922 216.645 52.6922C217.525 52.6922 218.279 52.6055 218.905 52.4322C219.532 52.2455 220.019 51.9922 220.365 51.6722C220.725 51.3389 220.905 50.9522 220.905 50.5122C220.905 50.0589 220.725 49.6722 220.365 49.3522C220.019 49.0189 219.532 48.7655 218.905 48.5922C218.279 48.4055 217.525 48.3122 216.645 48.3122ZM239.064 35.9722H240.724V49.5322H239.064V35.9722ZM240.204 41.9122H243.384V43.2922H240.204V41.9122ZM226.724 38.1722H237.404V39.5122H226.724V38.1722ZM232.064 40.4922C232.917 40.4922 233.671 40.6389 234.324 40.9322C234.977 41.2122 235.484 41.6055 235.844 42.1122C236.204 42.6055 236.384 43.1922 236.384 43.8722C236.384 44.5522 236.204 45.1455 235.844 45.6522C235.484 46.1455 234.977 46.5322 234.324 46.8122C233.671 47.0922 232.917 47.2322 232.064 47.2322C231.211 47.2322 230.457 47.0922 229.804 46.8122C229.151 46.5322 228.637 46.1455 228.264 45.6522C227.904 45.1455 227.724 44.5522 227.724 43.8722C227.724 43.1922 227.904 42.6055 228.264 42.1122C228.637 41.6055 229.151 41.2122 229.804 40.9322C230.457 40.6389 231.211 40.4922 232.064 40.4922ZM232.064 41.7922C231.251 41.7922 230.591 41.9855 230.084 42.3722C229.577 42.7455 229.324 43.2455 229.324 43.8722C229.324 44.4989 229.577 44.9989 230.084 45.3722C230.591 45.7455 231.251 45.9322 232.064 45.9322C232.891 45.9322 233.551 45.7455 234.044 45.3722C234.551 44.9989 234.804 44.4989 234.804 43.8722C234.804 43.2455 234.551 42.7455 234.044 42.3722C233.551 41.9855 232.891 41.7922 232.064 41.7922ZM231.244 35.9722H232.904V38.8522H231.244V35.9722ZM229.464 52.2922H241.524V53.6522H229.464V52.2922ZM229.464 48.4522H231.104V52.8522H229.464V48.4522ZM255.729 36.6122C256.635 36.6122 257.435 36.7855 258.129 37.1322C258.835 37.4655 259.389 37.9322 259.789 38.5322C260.189 39.1322 260.389 39.8322 260.389 40.6322C260.389 41.4189 260.189 42.1189 259.789 42.7322C259.389 43.3322 258.835 43.7989 258.129 44.1322C257.435 44.4655 256.635 44.6322 255.729 44.6322C254.835 44.6322 254.035 44.4655 253.329 44.1322C252.622 43.7989 252.062 43.3322 251.649 42.7322C251.249 42.1189 251.049 41.4189 251.049 40.6322C251.049 39.8322 251.249 39.1322 251.649 38.5322C252.062 37.9322 252.622 37.4655 253.329 37.1322C254.035 36.7855 254.835 36.6122 255.729 36.6122ZM255.729 37.9922C255.142 37.9922 254.615 38.1055 254.149 38.3322C253.695 38.5455 253.335 38.8522 253.069 39.2522C252.802 39.6522 252.669 40.1122 252.669 40.6322C252.669 41.1522 252.802 41.6122 253.069 42.0122C253.335 42.3989 253.695 42.7055 254.149 42.9322C254.615 43.1589 255.142 43.2722 255.729 43.2722C256.315 43.2722 256.835 43.1589 257.289 42.9322C257.755 42.7055 258.122 42.3989 258.389 42.0122C258.655 41.6122 258.789 41.1522 258.789 40.6322C258.789 40.1122 258.655 39.6522 258.389 39.2522C258.122 38.8522 257.755 38.5455 257.289 38.3322C256.835 38.1055 256.315 37.9922 255.729 37.9922ZM263.809 35.9522H265.469V45.2122H263.809V35.9522ZM253.769 46.1122H265.469V50.4922H255.429V53.2122H253.829V49.2522H263.829V47.4322H253.769V46.1122ZM253.829 52.4722H266.089V53.8122H253.829V52.4722ZM273.447 36.8922H274.807V38.7322C274.807 39.8922 274.6 40.9722 274.187 41.9722C273.787 42.9722 273.214 43.8455 272.467 44.5922C271.72 45.3255 270.847 45.8855 269.847 46.2722L268.947 44.9522C269.867 44.6189 270.66 44.1389 271.327 43.5122C272.007 42.8855 272.527 42.1655 272.887 41.3522C273.26 40.5255 273.447 39.6522 273.447 38.7322V36.8922ZM273.747 36.8922H275.087V38.8722C275.087 39.4722 275.194 40.0655 275.407 40.6522C275.62 41.2255 275.92 41.7589 276.307 42.2522C276.707 42.7455 277.174 43.1855 277.707 43.5722C278.24 43.9455 278.834 44.2455 279.487 44.4722L278.607 45.7722C277.647 45.4122 276.8 44.8922 276.067 44.2122C275.334 43.5189 274.76 42.7189 274.347 41.8122C273.947 40.8922 273.747 39.9122 273.747 38.8722V36.8922ZM281.427 35.9522H283.087V46.9322H281.427V35.9522ZM282.627 40.6322H285.747V42.0322H282.627V40.6322ZM277.327 47.4122C278.554 47.4122 279.607 47.5455 280.487 47.8122C281.38 48.0655 282.067 48.4389 282.547 48.9322C283.027 49.4255 283.267 50.0189 283.267 50.7122C283.267 51.4055 283.027 51.9989 282.547 52.4922C282.067 52.9855 281.38 53.3589 280.487 53.6122C279.607 53.8789 278.554 54.0122 277.327 54.0122C276.1 54.0122 275.04 53.8789 274.147 53.6122C273.254 53.3589 272.567 52.9855 272.087 52.4922C271.607 51.9989 271.367 51.4055 271.367 50.7122C271.367 50.0189 271.607 49.4255 272.087 48.9322C272.567 48.4389 273.254 48.0655 274.147 47.8122C275.04 47.5455 276.1 47.4122 277.327 47.4122ZM277.327 48.7322C276.434 48.7322 275.66 48.8122 275.007 48.9722C274.367 49.1322 273.874 49.3589 273.527 49.6522C273.18 49.9455 273.007 50.2989 273.007 50.7122C273.007 51.1389 273.18 51.4989 273.527 51.7922C273.874 52.0855 274.367 52.3122 275.007 52.4722C275.66 52.6189 276.434 52.6922 277.327 52.6922C278.22 52.6922 278.987 52.6189 279.627 52.4722C280.267 52.3122 280.76 52.0855 281.107 51.7922C281.454 51.4989 281.627 51.1389 281.627 50.7122C281.627 50.2989 281.454 49.9455 281.107 49.6522C280.76 49.3589 280.267 49.1322 279.627 48.9722C278.987 48.8122 278.22 48.7322 277.327 48.7322ZM295.606 36.2722C297.606 36.2722 299.166 36.5455 300.286 37.0922C301.406 37.6255 301.966 38.3922 301.966 39.3922C301.966 40.4055 301.406 41.1855 300.286 41.7322C299.166 42.2655 297.606 42.5322 295.606 42.5322C293.619 42.5322 292.059 42.2655 290.926 41.7322C289.806 41.1855 289.246 40.4055 289.246 39.3922C289.246 38.3922 289.806 37.6255 290.926 37.0922C292.059 36.5455 293.619 36.2722 295.606 36.2722ZM295.606 37.5122C294.632 37.5122 293.799 37.5855 293.106 37.7322C292.412 37.8789 291.879 38.0922 291.506 38.3722C291.146 38.6522 290.966 38.9922 290.966 39.3922C290.966 39.7922 291.146 40.1389 291.506 40.4322C291.879 40.7122 292.412 40.9255 293.106 41.0722C293.799 41.2055 294.632 41.2722 295.606 41.2722C296.592 41.2722 297.432 41.2055 298.126 41.0722C298.819 40.9255 299.346 40.7122 299.706 40.4322C300.079 40.1389 300.266 39.7922 300.266 39.3922C300.266 38.9922 300.079 38.6522 299.706 38.3722C299.346 38.0922 298.819 37.8789 298.126 37.7322C297.432 37.5855 296.592 37.5122 295.606 37.5122ZM287.446 43.7522H303.786V45.0922H287.446V43.7522ZM289.426 46.6322H301.686V50.7122H291.086V52.8922H289.466V49.4922H300.066V47.9122H289.426V46.6322ZM289.466 52.5522H302.226V53.8522H289.466V52.5522Z" fill="white"/>
<path d="M163.203 65.9522H164.863V76.8522H163.203V65.9522ZM164.403 70.7522H167.523V72.1522H164.403V70.7522ZM153.503 77.8722H164.863V83.8122H153.503V77.8722ZM163.223 79.2122H155.123V82.4522H163.223V79.2122ZM150.863 67.8722H161.543V69.2122H150.863V67.8722ZM156.203 70.1122C157.069 70.1122 157.823 70.2455 158.463 70.5122C159.116 70.7789 159.623 71.1589 159.983 71.6522C160.343 72.1322 160.523 72.6922 160.523 73.3322C160.523 73.9855 160.343 74.5522 159.983 75.0322C159.623 75.5122 159.116 75.8855 158.463 76.1522C157.823 76.4189 157.069 76.5522 156.203 76.5522C155.336 76.5522 154.576 76.4189 153.923 76.1522C153.283 75.8855 152.776 75.5122 152.403 75.0322C152.043 74.5522 151.863 73.9855 151.863 73.3322C151.863 72.6922 152.043 72.1322 152.403 71.6522C152.776 71.1589 153.283 70.7789 153.923 70.5122C154.576 70.2455 155.336 70.1122 156.203 70.1122ZM156.203 71.3922C155.376 71.3922 154.709 71.5655 154.203 71.9122C153.709 72.2589 153.463 72.7322 153.463 73.3322C153.463 73.9322 153.709 74.4122 154.203 74.7722C154.709 75.1189 155.376 75.2922 156.203 75.2922C157.016 75.2922 157.676 75.1189 158.183 74.7722C158.689 74.4122 158.943 73.9322 158.943 73.3322C158.943 72.7322 158.689 72.2589 158.183 71.9122C157.689 71.5655 157.029 71.3922 156.203 71.3922ZM155.383 65.8122H157.043V68.5522H155.383V65.8122ZM172.241 68.1322H173.661C173.661 69.0922 173.614 70.0789 173.521 71.0922C173.441 72.0922 173.288 73.0922 173.061 74.0922C172.848 75.0789 172.534 76.0522 172.121 77.0122C171.721 77.9722 171.194 78.8922 170.541 79.7722L169.241 79.0122C169.868 78.2122 170.374 77.3789 170.761 76.5122C171.161 75.6455 171.468 74.7589 171.681 73.8522C171.894 72.9322 172.041 72.0055 172.121 71.0722C172.201 70.1255 172.241 69.1855 172.241 68.2522V68.1322ZM169.621 68.1322H173.061V69.4922H169.621V68.1322ZM176.221 68.1322H177.641C177.641 69.0789 177.608 70.0922 177.541 71.1722C177.488 72.2522 177.361 73.3589 177.161 74.4922C176.974 75.6255 176.674 76.7389 176.261 77.8322C175.848 78.9255 175.281 79.9589 174.561 80.9322L173.261 80.1722C173.808 79.4522 174.261 78.6989 174.621 77.9122C174.994 77.1122 175.288 76.2989 175.501 75.4722C175.714 74.6322 175.874 73.8055 175.981 72.9922C176.088 72.1655 176.154 71.3522 176.181 70.5522C176.208 69.7522 176.221 68.9855 176.221 68.2522V68.1322ZM174.241 68.1322H177.101V69.4922H174.241V68.1322ZM183.061 65.9522H184.661V84.0522H183.061V65.9522ZM176.801 73.0522H180.061V74.4322H176.801V73.0522ZM179.721 66.4322H181.281V83.1322H179.721V66.4322ZM193.926 67.5922H202.246V75.9522H193.926V67.5922ZM200.626 68.9322H195.546V74.6122H200.626V68.9322ZM205.566 65.9522H207.226V79.2122H205.566V65.9522ZM206.706 71.4522H209.886V72.8322H206.706V71.4522ZM195.966 82.2922H208.026V83.6522H195.966V82.2922ZM195.966 77.9522H197.606V82.8722H195.966V77.9522ZM211.584 73.5122H227.944V74.8522H211.584V73.5122ZM213.764 70.7122H225.984V72.0522H213.764V70.7122ZM213.764 66.5522H225.804V67.8922H215.404V71.7722H213.764V66.5522ZM213.564 76.4322H225.824V80.6722H215.224V82.9522H213.604V79.4322H224.204V77.7322H213.564V76.4322ZM213.604 82.5122H226.364V83.8322H213.604V82.5122ZM234.803 67.3522C235.683 67.3522 236.463 67.6122 237.143 68.1322C237.823 68.6389 238.349 69.3655 238.723 70.3122C239.109 71.2589 239.303 72.3722 239.303 73.6522C239.303 74.9322 239.109 76.0455 238.723 76.9922C238.349 77.9389 237.823 78.6722 237.143 79.1922C236.463 79.7122 235.683 79.9722 234.803 79.9722C233.936 79.9722 233.156 79.7122 232.463 79.1922C231.783 78.6722 231.249 77.9389 230.863 76.9922C230.489 76.0455 230.303 74.9322 230.303 73.6522C230.303 72.3722 230.489 71.2589 230.863 70.3122C231.249 69.3655 231.783 68.6389 232.463 68.1322C233.156 67.6122 233.936 67.3522 234.803 67.3522ZM234.803 68.8322C234.229 68.8322 233.723 69.0322 233.283 69.4322C232.843 69.8189 232.496 70.3789 232.243 71.1122C232.003 71.8322 231.883 72.6789 231.883 73.6522C231.883 74.6255 232.003 75.4789 232.243 76.2122C232.496 76.9322 232.843 77.4922 233.283 77.8922C233.723 78.2922 234.229 78.4922 234.803 78.4922C235.389 78.4922 235.903 78.2922 236.343 77.8922C236.783 77.4922 237.123 76.9322 237.363 76.2122C237.616 75.4789 237.743 74.6255 237.743 73.6522C237.743 72.6789 237.616 71.8322 237.363 71.1122C237.123 70.3789 236.783 69.8189 236.343 69.4322C235.903 69.0322 235.389 68.8322 234.803 68.8322ZM243.223 65.9522H244.863V84.0722H243.223V65.9522ZM238.763 72.8522H243.963V74.1922H238.763V72.8522ZM260.621 65.9522H262.281V84.0322H260.621V65.9522ZM261.841 73.2922H265.161V74.6722H261.841V73.2922ZM256.001 67.8922H257.621C257.621 69.6122 257.341 71.2589 256.781 72.8322C256.221 74.3922 255.341 75.8389 254.141 77.1722C252.941 78.4922 251.361 79.6389 249.401 80.6122L248.481 79.3322C250.161 78.4922 251.554 77.5122 252.661 76.3922C253.781 75.2589 254.614 74.0055 255.161 72.6322C255.721 71.2455 256.001 69.7522 256.001 68.1522V67.8922ZM249.321 67.8922H256.841V69.2722H249.321V67.8922ZM270.8 75.2722H272.44V80.6722H270.8V75.2722ZM277.48 75.2722H279.14V80.6722H277.48V75.2722ZM266.78 80.3522H283.18V81.7322H266.78V80.3522ZM274.94 67.0922C276.22 67.0922 277.353 67.2855 278.34 67.6722C279.326 68.0589 280.1 68.5989 280.66 69.2922C281.233 69.9855 281.52 70.8055 281.52 71.7522C281.52 72.6855 281.233 73.5055 280.66 74.2122C280.1 74.9055 279.326 75.4455 278.34 75.8322C277.353 76.2055 276.22 76.3922 274.94 76.3922C273.673 76.3922 272.54 76.2055 271.54 75.8322C270.553 75.4455 269.78 74.9055 269.22 74.2122C268.66 73.5055 268.38 72.6855 268.38 71.7522C268.38 70.8055 268.66 69.9855 269.22 69.2922C269.78 68.5989 270.553 68.0589 271.54 67.6722C272.54 67.2855 273.673 67.0922 274.94 67.0922ZM274.94 68.4122C273.98 68.4122 273.126 68.5522 272.38 68.8322C271.633 69.1122 271.046 69.5055 270.62 70.0122C270.193 70.5055 269.98 71.0855 269.98 71.7522C269.98 72.4189 270.193 73.0055 270.62 73.5122C271.046 74.0055 271.633 74.3922 272.38 74.6722C273.126 74.9522 273.98 75.0922 274.94 75.0922C275.913 75.0922 276.773 74.9522 277.52 74.6722C278.266 74.3922 278.853 74.0055 279.28 73.5122C279.706 73.0055 279.92 72.4189 279.92 71.7522C279.92 71.0855 279.706 70.5055 279.28 70.0122C278.853 69.5055 278.266 69.1122 277.52 68.8322C276.773 68.5522 275.913 68.4122 274.94 68.4122Z" fill="white"/>
</g>
<g filter="url(#filter1_d_145_89)">
<path d="M50.4911 137.239H57.1471V143.431H50.4911V137.239ZM55.8511 138.311H51.7871V142.359H55.8511V138.311ZM59.8031 136.247H61.1311V144.503H59.8031V136.247ZM60.7631 139.719H63.2591V140.823H60.7631V139.719ZM55.9471 145.847H57.0671V146.231C57.0671 146.797 56.9285 147.325 56.6511 147.815C56.3845 148.306 56.0058 148.743 55.5151 149.127C55.0351 149.511 54.4805 149.831 53.8511 150.087C53.2218 150.354 52.5498 150.546 51.8351 150.663L51.3391 149.639C51.9578 149.554 52.5445 149.405 53.0991 149.191C53.6538 148.978 54.1445 148.722 54.5711 148.423C54.9978 148.114 55.3338 147.773 55.5791 147.399C55.8245 147.026 55.9471 146.637 55.9471 146.231V145.847ZM56.1871 145.847H57.3231V146.231C57.3231 146.637 57.4458 147.021 57.6911 147.383C57.9471 147.746 58.2885 148.082 58.7151 148.391C59.1418 148.701 59.6271 148.967 60.1711 149.191C60.7258 149.405 61.3125 149.559 61.9311 149.655L61.4351 150.679C60.7205 150.551 60.0485 150.354 59.4191 150.087C58.7898 149.831 58.2298 149.511 57.7391 149.127C57.2591 148.733 56.8805 148.29 56.6031 147.799C56.3258 147.309 56.1871 146.786 56.1871 146.231V145.847ZM51.8991 145.351H61.3711V146.423H51.8991V145.351ZM70.4899 144.231H71.8019V146.503H70.4899V144.231ZM64.6179 143.399H77.6899V144.471H64.6179V143.399ZM70.4899 136.167H71.8019V138.183H70.4899V136.167ZM70.4259 138.311H71.5939V138.535C71.5939 139.122 71.4392 139.65 71.1299 140.119C70.8312 140.578 70.4099 140.978 69.8659 141.319C69.3325 141.65 68.7139 141.917 68.0099 142.119C67.3059 142.322 66.5592 142.466 65.7699 142.551L65.3699 141.543C66.0739 141.49 66.7299 141.378 67.3379 141.207C67.9565 141.037 68.4952 140.823 68.9539 140.567C69.4125 140.311 69.7699 140.013 70.0259 139.671C70.2925 139.319 70.4259 138.941 70.4259 138.535V138.311ZM70.7139 138.311H71.8659V138.535C71.8659 138.941 71.9939 139.319 72.2499 139.671C72.5165 140.013 72.8792 140.311 73.3379 140.567C73.8072 140.823 74.3459 141.037 74.9539 141.207C75.5619 141.378 76.2179 141.49 76.9219 141.543L76.5379 142.551C75.7379 142.466 74.9859 142.322 74.2819 142.119C73.5885 141.917 72.9699 141.65 72.4259 141.319C71.8925 140.978 71.4712 140.578 71.1619 140.119C70.8632 139.65 70.7139 139.122 70.7139 138.535V138.311ZM65.9619 137.607H76.3619V138.663H65.9619V137.607ZM66.2179 146.039H76.0899V150.535H66.2179V146.039ZM74.7939 147.111H67.5139V149.447H74.7939V147.111ZM87.4646 139.719H90.4246V140.807H87.4646V139.719ZM87.4486 142.535H90.3926V143.623H87.4486V142.535ZM79.3526 137.847H87.4646V138.919H79.3526V137.847ZM83.4486 139.655C84.0993 139.655 84.67 139.767 85.1606 139.991C85.6513 140.215 86.0353 140.53 86.3126 140.935C86.59 141.33 86.7286 141.799 86.7286 142.343C86.7286 142.877 86.59 143.346 86.3126 143.751C86.0353 144.146 85.6513 144.455 85.1606 144.679C84.67 144.903 84.0993 145.015 83.4486 145.015C82.8086 145.015 82.2433 144.903 81.7526 144.679C81.262 144.455 80.878 144.146 80.6006 143.751C80.3233 143.346 80.1846 142.877 80.1846 142.343C80.1846 141.799 80.3233 141.33 80.6006 140.935C80.878 140.53 81.262 140.215 81.7526 139.991C82.2433 139.767 82.8086 139.655 83.4486 139.655ZM83.4486 140.679C82.8406 140.679 82.35 140.829 81.9766 141.127C81.614 141.426 81.4326 141.831 81.4326 142.343C81.4326 142.845 81.614 143.25 81.9766 143.559C82.35 143.858 82.8406 144.007 83.4486 144.007C84.0566 144.007 84.5473 143.858 84.9206 143.559C85.3046 143.25 85.4966 142.845 85.4966 142.343C85.4966 141.831 85.3046 141.426 84.9206 141.127C84.5473 140.829 84.0566 140.679 83.4486 140.679ZM82.8086 136.119H84.1206V138.583H82.8086V136.119ZM89.9126 136.247H91.2406V145.591H89.9126V136.247ZM86.5046 145.751C87.5073 145.751 88.366 145.847 89.0806 146.039C89.7953 146.231 90.3446 146.514 90.7286 146.887C91.1233 147.261 91.3206 147.709 91.3206 148.231C91.3206 148.743 91.1233 149.186 90.7286 149.559C90.3446 149.933 89.7953 150.215 89.0806 150.407C88.366 150.599 87.5073 150.695 86.5046 150.695C85.502 150.695 84.638 150.599 83.9126 150.407C83.198 150.215 82.6433 149.933 82.2486 149.559C81.8646 149.186 81.6726 148.743 81.6726 148.231C81.6726 147.709 81.8646 147.261 82.2486 146.887C82.6433 146.514 83.198 146.231 83.9126 146.039C84.638 145.847 85.502 145.751 86.5046 145.751ZM86.5046 146.791C85.438 146.791 84.5953 146.914 83.9766 147.159C83.358 147.405 83.0486 147.762 83.0486 148.231C83.0486 148.679 83.358 149.031 83.9766 149.287C84.5953 149.543 85.438 149.671 86.5046 149.671C87.5606 149.671 88.3926 149.543 89.0006 149.287C89.6193 149.031 89.9286 148.679 89.9286 148.231C89.9286 147.762 89.6193 147.405 89.0006 147.159C88.3926 146.914 87.5606 146.791 86.5046 146.791ZM98.4925 143.591H111.612V144.679H98.4925V143.591ZM104.492 144.279H105.836V147.607H104.492V144.279ZM100.172 149.303H110.156V150.407H100.172V149.303ZM100.172 146.183H101.5V149.607H100.172V146.183ZM105.036 136.615C106.06 136.615 106.951 136.733 107.708 136.967C108.466 137.202 109.052 137.538 109.468 137.975C109.895 138.402 110.108 138.919 110.108 139.527C110.108 140.114 109.895 140.626 109.468 141.063C109.052 141.501 108.466 141.837 107.708 142.071C106.951 142.306 106.06 142.423 105.036 142.423C104.023 142.423 103.132 142.306 102.364 142.071C101.607 141.837 101.015 141.501 100.588 141.063C100.172 140.626 99.9645 140.114 99.9645 139.527C99.9645 138.919 100.172 138.402 100.588 137.975C101.015 137.538 101.607 137.202 102.364 136.967C103.132 136.733 104.023 136.615 105.036 136.615ZM105.036 137.687C104.311 137.687 103.671 137.762 103.116 137.911C102.562 138.061 102.13 138.274 101.82 138.551C101.522 138.818 101.372 139.143 101.372 139.527C101.372 139.901 101.522 140.226 101.82 140.503C102.13 140.77 102.562 140.978 103.116 141.127C103.671 141.266 104.311 141.335 105.036 141.335C105.783 141.335 106.428 141.266 106.972 141.127C107.516 140.978 107.938 140.77 108.236 140.503C108.546 140.226 108.7 139.901 108.7 139.527C108.7 139.143 108.546 138.818 108.236 138.551C107.938 138.274 107.516 138.061 106.972 137.911C106.428 137.762 105.783 137.687 105.036 137.687ZM113.227 143.383H126.315V144.455H113.227V143.383ZM119.115 141.063H120.411V143.831H119.115V141.063ZM114.875 140.647H124.779V141.719H114.875V140.647ZM114.875 136.919H124.683V137.975H116.187V141.287H114.875V136.919ZM119.755 145.495C121.302 145.495 122.513 145.725 123.387 146.183C124.262 146.631 124.699 147.271 124.699 148.103C124.699 148.935 124.262 149.575 123.387 150.023C122.513 150.482 121.302 150.711 119.755 150.711C118.209 150.711 116.993 150.482 116.107 150.023C115.233 149.575 114.795 148.935 114.795 148.103C114.795 147.271 115.233 146.631 116.107 146.183C116.993 145.725 118.209 145.495 119.755 145.495ZM119.739 146.535C118.993 146.535 118.347 146.599 117.803 146.727C117.27 146.845 116.859 147.021 116.571 147.255C116.283 147.479 116.139 147.762 116.139 148.103C116.139 148.434 116.283 148.717 116.571 148.951C116.859 149.186 117.27 149.362 117.803 149.479C118.347 149.607 118.993 149.671 119.739 149.671C120.507 149.671 121.158 149.607 121.691 149.479C122.235 149.362 122.651 149.186 122.939 148.951C123.227 148.717 123.371 148.434 123.371 148.103C123.371 147.762 123.227 147.479 122.939 147.255C122.651 147.021 122.235 146.845 121.691 146.727C121.158 146.599 120.507 146.535 119.739 146.535ZM138.271 145.447H139.583V150.743H138.271V145.447ZM132.399 144.999H145.471V146.103H132.399V144.999ZM138.271 138.743H139.439V139.111C139.439 139.602 139.338 140.071 139.135 140.519C138.932 140.957 138.65 141.362 138.287 141.735C137.924 142.109 137.498 142.445 137.007 142.743C136.527 143.031 136.004 143.277 135.439 143.479C134.884 143.671 134.303 143.81 133.695 143.895L133.215 142.839C133.738 142.765 134.244 142.647 134.735 142.487C135.236 142.327 135.695 142.13 136.111 141.895C136.538 141.661 136.911 141.399 137.231 141.111C137.562 140.813 137.818 140.498 137.999 140.167C138.18 139.826 138.271 139.474 138.271 139.111V138.743ZM138.431 138.743H139.599V139.111C139.599 139.463 139.69 139.81 139.871 140.151C140.052 140.482 140.303 140.797 140.623 141.095C140.943 141.383 141.311 141.65 141.727 141.895C142.154 142.13 142.612 142.327 143.103 142.487C143.604 142.647 144.116 142.765 144.639 142.839L144.159 143.895C143.551 143.81 142.964 143.671 142.399 143.479C141.844 143.277 141.322 143.031 140.831 142.743C140.351 142.445 139.93 142.109 139.567 141.735C139.215 141.362 138.938 140.957 138.735 140.519C138.532 140.071 138.431 139.602 138.431 139.111V138.743ZM133.663 138.039H144.207V139.111H133.663V138.039ZM138.271 136.247H139.583V138.407H138.271V136.247ZM150.734 138.983H151.822V139.703C151.822 140.567 151.657 141.373 151.326 142.119C150.995 142.855 150.526 143.495 149.918 144.039C149.321 144.583 148.617 144.999 147.806 145.287L147.15 144.247C147.865 144.013 148.489 143.666 149.022 143.207C149.566 142.749 149.987 142.221 150.286 141.623C150.585 141.015 150.734 140.375 150.734 139.703V138.983ZM150.958 138.983H152.046V139.703C152.046 140.333 152.195 140.935 152.494 141.511C152.803 142.077 153.23 142.573 153.774 142.999C154.318 143.426 154.947 143.757 155.662 143.991L155.006 145.031C154.206 144.765 153.502 144.375 152.894 143.863C152.286 143.341 151.811 142.727 151.47 142.023C151.129 141.309 150.958 140.535 150.958 139.703V138.983ZM147.518 138.183H155.246V139.255H147.518V138.183ZM150.734 136.343H152.062V138.583H150.734V136.343ZM154.75 140.695H158.398V141.815H154.75V140.695ZM157.694 136.263H159.022V147.063H157.694V136.263ZM149.79 149.319H159.422V150.407H149.79V149.319ZM149.79 146.103H151.102V149.895H149.79V146.103ZM164.044 149.081C164.044 149.633 163.995 150.094 163.896 150.464C163.797 150.834 163.643 151.188 163.435 151.526H162.474C162.719 151.172 162.901 150.823 163.021 150.479C163.146 150.141 163.208 149.808 163.208 149.479H162.521V147.769H164.044V149.081ZM174.503 136.935H175.607V138.343C175.607 139.261 175.436 140.119 175.095 140.919C174.764 141.719 174.29 142.418 173.671 143.015C173.063 143.602 172.354 144.05 171.543 144.359L170.871 143.303C171.415 143.101 171.906 142.834 172.343 142.503C172.791 142.162 173.175 141.773 173.495 141.335C173.826 140.898 174.076 140.423 174.247 139.911C174.418 139.399 174.503 138.877 174.503 138.343V136.935ZM174.743 136.935H175.847V138.343C175.847 138.866 175.932 139.367 176.103 139.847C176.284 140.327 176.535 140.775 176.855 141.191C177.175 141.607 177.554 141.975 177.991 142.295C178.439 142.615 178.93 142.866 179.463 143.047L178.807 144.103C178.007 143.805 177.298 143.378 176.679 142.823C176.071 142.258 175.596 141.591 175.255 140.823C174.914 140.055 174.743 139.229 174.743 138.343V136.935ZM172.935 145.687H182.599V150.727H181.271V146.775H172.935V145.687ZM181.271 136.247H182.599V144.951H181.271V136.247ZM195.366 136.247H196.694V146.727H195.366V136.247ZM196.278 140.535H198.838V141.639H196.278V140.535ZM186.134 143.063H187.254C188.246 143.063 189.115 143.053 189.862 143.031C190.608 143.01 191.296 142.962 191.926 142.887C192.555 142.813 193.19 142.711 193.83 142.583L193.99 143.671C193.318 143.799 192.656 143.901 192.006 143.975C191.366 144.05 190.667 144.103 189.91 144.135C189.152 144.157 188.267 144.167 187.254 144.167H186.134V143.063ZM186.134 137.495H192.518V138.583H187.446V143.655H186.134V137.495ZM187.686 149.319H197.334V150.407H187.686V149.319ZM187.686 145.671H188.998V149.815H187.686V145.671ZM205.417 137.367H211.817V138.471H205.417V137.367ZM207.593 140.599H208.905V144.215H207.593V140.599ZM211.289 137.367H212.585V138.135C212.585 138.615 212.569 139.213 212.537 139.927C212.516 140.642 212.409 141.474 212.217 142.423L210.905 142.295C211.097 141.335 211.209 140.519 211.241 139.847C211.273 139.175 211.289 138.605 211.289 138.135V137.367ZM214.553 136.247H215.897V147.143H214.553V136.247ZM215.289 140.951H217.961V142.071H215.289V140.951ZM206.745 149.319H216.361V150.407H206.745V149.319ZM206.745 146.151H208.073V149.639H206.745V146.151ZM204.681 144.839L204.537 143.751C205.391 143.751 206.335 143.741 207.369 143.719C208.404 143.698 209.455 143.655 210.521 143.591C211.588 143.517 212.612 143.415 213.593 143.287L213.673 144.263C212.681 144.434 211.652 144.562 210.585 144.647C209.519 144.733 208.479 144.786 207.465 144.807C206.463 144.829 205.535 144.839 204.681 144.839ZM229.896 136.247H231.208V150.743H229.896V136.247ZM220.184 146.135H221.384C222.206 146.135 222.995 146.125 223.752 146.103C224.52 146.071 225.294 146.018 226.072 145.943C226.862 145.869 227.683 145.762 228.536 145.623L228.664 146.711C227.363 146.925 226.136 147.069 224.984 147.143C223.832 147.207 222.632 147.239 221.384 147.239H220.184V146.135ZM220.152 137.591H226.84V142.759H221.528V146.551H220.184V141.687H225.496V138.679H220.152V137.591ZM236.279 149.081C236.279 149.633 236.229 150.094 236.13 150.464C236.031 150.834 235.878 151.188 235.669 151.526H234.708C234.953 151.172 235.136 150.823 235.255 150.479C235.38 150.141 235.443 149.808 235.443 149.479H234.755V147.769H236.279V149.081ZM253.553 136.263H254.881V146.951H253.553V136.263ZM250.417 140.711H253.809V141.815H250.417V140.711ZM249.073 137.367H250.481C250.481 138.615 250.204 139.757 249.649 140.791C249.095 141.815 248.316 142.706 247.313 143.463C246.311 144.221 245.127 144.829 243.761 145.287L243.201 144.215C244.375 143.821 245.404 143.314 246.289 142.695C247.175 142.077 247.857 141.362 248.337 140.551C248.828 139.741 249.073 138.861 249.073 137.911V137.367ZM243.921 137.367H249.937V138.471H243.921V137.367ZM245.729 149.319H255.249V150.407H245.729V149.319ZM245.729 145.863H247.073V149.863H245.729V145.863ZM267.6 136.247H268.928V144.903H267.6V136.247ZM268.56 139.991H271.056V141.095H268.56V139.991ZM263.6 137.319H265.008C265.008 138.546 264.736 139.661 264.192 140.663C263.648 141.666 262.869 142.53 261.856 143.255C260.853 143.981 259.653 144.546 258.256 144.951L257.712 143.879C258.939 143.517 259.989 143.042 260.864 142.455C261.739 141.869 262.411 141.191 262.88 140.423C263.36 139.655 263.6 138.818 263.6 137.911V137.319ZM258.336 137.319H264.352V138.407H258.336V137.319ZM264.384 145.079C265.344 145.079 266.176 145.191 266.88 145.415C267.584 145.639 268.128 145.965 268.512 146.391C268.896 146.807 269.088 147.309 269.088 147.895C269.088 148.471 268.896 148.967 268.512 149.383C268.128 149.799 267.584 150.119 266.88 150.343C266.176 150.578 265.344 150.695 264.384 150.695C263.435 150.695 262.603 150.578 261.888 150.343C261.184 150.119 260.635 149.799 260.24 149.383C259.856 148.967 259.664 148.471 259.664 147.895C259.664 147.309 259.856 146.807 260.24 146.391C260.635 145.965 261.184 145.639 261.888 145.415C262.603 145.191 263.435 145.079 264.384 145.079ZM264.384 146.135C263.701 146.135 263.104 146.21 262.592 146.359C262.08 146.498 261.68 146.701 261.392 146.967C261.115 147.223 260.976 147.533 260.976 147.895C260.976 148.247 261.115 148.557 261.392 148.823C261.68 149.079 262.08 149.282 262.592 149.431C263.104 149.57 263.701 149.639 264.384 149.639C265.088 149.639 265.691 149.57 266.192 149.431C266.693 149.282 267.083 149.079 267.36 148.823C267.648 148.557 267.792 148.247 267.792 147.895C267.792 147.533 267.648 147.223 267.36 146.967C267.083 146.701 266.693 146.498 266.192 146.359C265.691 146.21 265.088 146.135 264.384 146.135ZM287.876 136.247H289.156V150.727H287.876V136.247ZM281.86 141.767H285.508V142.871H281.86V141.767ZM284.964 136.583H286.212V149.975H284.964V136.583ZM277.412 146.135H278.34C279.087 146.135 279.748 146.125 280.324 146.103C280.911 146.082 281.46 146.039 281.972 145.975C282.495 145.911 283.023 145.826 283.556 145.719L283.684 146.823C283.14 146.941 282.601 147.031 282.068 147.095C281.535 147.149 280.969 147.186 280.372 147.207C279.785 147.229 279.108 147.239 278.34 147.239H277.412V146.135ZM277.412 138.023H282.836V139.111H278.708V146.567H277.412V138.023ZM302.099 136.247H303.427V150.743H302.099V136.247ZM295.795 137.367C296.509 137.367 297.139 137.575 297.683 137.991C298.237 138.397 298.669 138.978 298.979 139.735C299.299 140.493 299.459 141.383 299.459 142.407C299.459 143.431 299.299 144.322 298.979 145.079C298.669 145.837 298.237 146.423 297.683 146.839C297.139 147.255 296.509 147.463 295.795 147.463C295.08 147.463 294.445 147.255 293.891 146.839C293.336 146.423 292.899 145.837 292.579 145.079C292.269 144.322 292.115 143.431 292.115 142.407C292.115 141.383 292.269 140.493 292.579 139.735C292.899 138.978 293.336 138.397 293.891 137.991C294.445 137.575 295.08 137.367 295.795 137.367ZM295.795 138.551C295.315 138.551 294.893 138.711 294.531 139.031C294.179 139.341 293.901 139.789 293.699 140.375C293.496 140.951 293.395 141.629 293.395 142.407C293.395 143.186 293.496 143.869 293.699 144.455C293.901 145.031 294.179 145.479 294.531 145.799C294.893 146.119 295.315 146.279 295.795 146.279C296.264 146.279 296.675 146.119 297.027 145.799C297.389 145.479 297.672 145.031 297.875 144.455C298.077 143.869 298.179 143.186 298.179 142.407C298.179 141.629 298.077 140.951 297.875 140.375C297.672 139.789 297.389 139.341 297.027 139.031C296.675 138.711 296.264 138.551 295.795 138.551ZM316.897 136.247H318.209V150.743H316.897V136.247ZM313.905 141.703H317.105V142.791H313.905V141.703ZM306.977 146.167H308.065C308.983 146.167 309.799 146.157 310.513 146.135C311.228 146.114 311.905 146.071 312.545 146.007C313.196 145.943 313.857 145.853 314.529 145.735L314.673 146.823C313.98 146.941 313.303 147.031 312.641 147.095C311.98 147.159 311.281 147.207 310.545 147.239C309.82 147.261 308.993 147.271 308.065 147.271H306.977V146.167ZM306.977 137.575H313.665V138.663H308.289V146.535H306.977V137.575ZM307.953 141.639H313.025V142.711H307.953V141.639ZM325.461 143.895H338.581V144.967H325.461V143.895ZM331.445 144.439H332.773V147.767H331.445V144.439ZM327.125 149.319H337.125V150.407H327.125V149.319ZM327.125 146.471H328.437V149.719H327.125V146.471ZM327.205 136.711H328.517V138.551H335.525V136.711H336.837V142.503H327.205V136.711ZM328.517 139.575V141.431H335.525V139.575H328.517ZM347.62 139.271H351.044V140.375H347.62V139.271ZM343.812 136.983H344.9V138.503C344.9 139.421 344.735 140.279 344.404 141.079C344.073 141.869 343.609 142.562 343.012 143.159C342.425 143.746 341.727 144.194 340.916 144.503L340.212 143.431C340.948 143.175 341.583 142.802 342.116 142.311C342.66 141.81 343.076 141.234 343.364 140.583C343.663 139.922 343.812 139.229 343.812 138.503V136.983ZM344.052 136.983H345.124V138.567C345.124 139.058 345.209 139.538 345.38 140.007C345.551 140.477 345.791 140.914 346.1 141.319C346.409 141.714 346.777 142.071 347.204 142.391C347.641 142.701 348.121 142.946 348.644 143.127L347.94 144.183C347.161 143.885 346.479 143.458 345.892 142.903C345.305 142.338 344.852 141.687 344.532 140.951C344.212 140.205 344.052 139.41 344.052 138.567V136.983ZM342.436 145.607H352.1V150.727H350.772V146.679H342.436V145.607ZM350.772 136.247H352.1V144.807H350.772V136.247ZM364.947 136.247H366.275V150.727H364.947V136.247ZM365.843 142.215H368.435V143.319H365.843V142.215ZM358.019 137.815H359.251C359.251 138.679 359.197 139.538 359.091 140.391C358.984 141.245 358.803 142.082 358.547 142.903C358.301 143.725 357.96 144.519 357.523 145.287C357.096 146.045 356.557 146.77 355.907 147.463L354.851 146.711C355.437 146.093 355.933 145.442 356.339 144.759C356.755 144.077 357.085 143.367 357.331 142.631C357.576 141.895 357.752 141.138 357.859 140.359C357.965 139.57 358.019 138.77 358.019 137.959V137.815ZM355.315 137.815H358.515V138.919H355.315V137.815ZM361.971 137.815H363.203C363.203 138.69 363.16 139.586 363.075 140.503C363 141.421 362.845 142.338 362.611 143.255C362.387 144.173 362.067 145.069 361.651 145.943C361.245 146.818 360.707 147.645 360.035 148.423L358.963 147.687C359.581 146.983 360.083 146.237 360.467 145.447C360.861 144.658 361.165 143.847 361.379 143.015C361.592 142.173 361.741 141.325 361.827 140.471C361.923 139.618 361.971 138.775 361.971 137.943V137.815ZM359.715 137.815H362.499V138.919H359.715V137.815ZM373.457 138.327H374.545V140.663C374.545 141.431 374.439 142.189 374.225 142.935C374.012 143.671 373.713 144.37 373.329 145.031C372.956 145.682 372.519 146.258 372.017 146.759C371.516 147.261 370.977 147.655 370.401 147.943L369.633 146.887C370.156 146.631 370.647 146.285 371.105 145.847C371.575 145.41 371.985 144.909 372.337 144.343C372.689 143.778 372.961 143.181 373.153 142.551C373.356 141.922 373.457 141.293 373.457 140.663V138.327ZM373.729 138.327H374.801V140.663C374.801 141.271 374.897 141.879 375.089 142.487C375.292 143.085 375.569 143.65 375.921 144.183C376.284 144.706 376.695 145.17 377.153 145.575C377.623 145.981 378.124 146.301 378.657 146.535L377.921 147.591C377.335 147.314 376.785 146.941 376.273 146.471C375.761 146.002 375.313 145.463 374.929 144.855C374.556 144.237 374.263 143.575 374.049 142.871C373.836 142.157 373.729 141.421 373.729 140.663V138.327ZM370.097 137.735H378.177V138.839H370.097V137.735ZM380.145 136.247H381.473V150.727H380.145V136.247Z" fill="white"/>
<path d="M102.249 162.249H103.561V176.729H102.249V162.249ZM103.257 168.201H105.929V169.321H103.257V168.201ZM92.3606 164.569H100.889V165.657H92.3606V164.569ZM96.6966 166.841C97.3793 166.841 97.982 166.985 98.5046 167.273C99.038 167.561 99.454 167.956 99.7526 168.457C100.062 168.948 100.217 169.519 100.217 170.169C100.217 170.82 100.062 171.396 99.7526 171.897C99.454 172.399 99.038 172.793 98.5046 173.081C97.982 173.359 97.3793 173.497 96.6966 173.497C96.014 173.497 95.406 173.359 94.8726 173.081C94.35 172.793 93.934 172.399 93.6246 171.897C93.3153 171.396 93.1606 170.82 93.1606 170.169C93.1606 169.519 93.3153 168.948 93.6246 168.457C93.934 167.956 94.35 167.561 94.8726 167.273C95.406 166.985 96.014 166.841 96.6966 166.841ZM96.6966 167.945C96.2593 167.945 95.87 168.041 95.5286 168.233C95.1873 168.425 94.9153 168.687 94.7126 169.017C94.5206 169.348 94.4246 169.732 94.4246 170.169C94.4246 170.607 94.5206 170.996 94.7126 171.337C94.9153 171.668 95.1873 171.929 95.5286 172.121C95.87 172.303 96.2593 172.393 96.6966 172.393C97.1233 172.393 97.5073 172.303 97.8486 172.121C98.19 171.929 98.4566 171.668 98.6486 171.337C98.8513 170.996 98.9526 170.607 98.9526 170.169C98.9526 169.732 98.8513 169.348 98.6486 169.017C98.4566 168.687 98.19 168.425 97.8486 168.233C97.5073 168.041 97.1233 167.945 96.6966 167.945ZM96.0086 162.425H97.3366V165.049H96.0086V162.425ZM117.927 168.025H120.583V169.129H117.927V168.025ZM116.951 162.249H118.279V176.713H116.951V162.249ZM107.735 163.673H109.047V172.633H107.735V163.673ZM107.735 171.945H108.887C109.943 171.945 111.026 171.897 112.135 171.801C113.255 171.705 114.413 171.535 115.607 171.289L115.767 172.409C114.53 172.655 113.346 172.825 112.215 172.921C111.095 173.007 109.986 173.049 108.887 173.049H107.735V171.945ZM126.566 163.305C127.323 163.305 127.99 163.449 128.566 163.737C129.153 164.015 129.611 164.409 129.942 164.921C130.273 165.433 130.438 166.031 130.438 166.713C130.438 167.385 130.273 167.983 129.942 168.505C129.611 169.017 129.153 169.417 128.566 169.705C127.99 169.983 127.323 170.121 126.566 170.121C125.819 170.121 125.153 169.983 124.566 169.705C123.979 169.417 123.515 169.017 123.174 168.505C122.843 167.983 122.678 167.385 122.678 166.713C122.678 166.031 122.843 165.433 123.174 164.921C123.515 164.409 123.979 164.015 124.566 163.737C125.153 163.449 125.819 163.305 126.566 163.305ZM126.566 164.457C126.075 164.457 125.633 164.553 125.238 164.745C124.854 164.927 124.55 165.188 124.326 165.529C124.102 165.871 123.99 166.265 123.99 166.713C123.99 167.161 124.102 167.556 124.326 167.897C124.55 168.239 124.854 168.505 125.238 168.697C125.633 168.879 126.075 168.969 126.566 168.969C127.067 168.969 127.51 168.879 127.894 168.697C128.278 168.505 128.582 168.239 128.806 167.897C129.03 167.556 129.142 167.161 129.142 166.713C129.142 166.265 129.03 165.871 128.806 165.529C128.582 165.188 128.278 164.927 127.894 164.745C127.51 164.553 127.067 164.457 126.566 164.457ZM132.342 162.249H133.67V176.745H132.342V162.249ZM122.134 173.577L121.958 172.457C122.843 172.457 123.814 172.452 124.87 172.441C125.926 172.42 127.014 172.377 128.134 172.313C129.265 172.239 130.353 172.121 131.398 171.961L131.51 172.937C130.422 173.14 129.318 173.289 128.198 173.385C127.089 173.471 126.017 173.524 124.982 173.545C123.947 173.567 122.998 173.577 122.134 173.577ZM152.058 162.249H153.322V176.729H152.058V162.249ZM149.61 168.057H152.394V169.145H149.61V168.057ZM148.778 162.569H150.01V175.977H148.778V162.569ZM141.562 172.041H142.506C143.221 172.041 143.866 172.036 144.442 172.025C145.029 172.004 145.583 171.961 146.106 171.897C146.639 171.833 147.183 171.743 147.738 171.625L147.866 172.729C147.29 172.847 146.73 172.937 146.186 173.001C145.653 173.065 145.087 173.108 144.49 173.129C143.903 173.151 143.242 173.161 142.506 173.161H141.562V172.041ZM141.562 164.009H146.938V165.097H142.89V172.553H141.562V164.009ZM159.577 163.497H160.681V166.089C160.681 166.921 160.574 167.732 160.361 168.521C160.158 169.3 159.865 170.031 159.481 170.713C159.107 171.385 158.665 171.983 158.153 172.505C157.651 173.017 157.102 173.423 156.505 173.721L155.689 172.617C156.233 172.372 156.739 172.02 157.209 171.561C157.678 171.103 158.089 170.585 158.441 170.009C158.793 169.423 159.07 168.793 159.273 168.121C159.475 167.449 159.577 166.772 159.577 166.089V163.497ZM159.801 163.497H160.905V166.089C160.905 166.751 161.001 167.401 161.193 168.041C161.395 168.681 161.673 169.289 162.025 169.865C162.387 170.431 162.798 170.932 163.257 171.369C163.726 171.796 164.227 172.132 164.761 172.377L163.961 173.433C163.374 173.156 162.83 172.767 162.329 172.265C161.827 171.764 161.385 171.188 161.001 170.537C160.627 169.887 160.334 169.183 160.121 168.425C159.907 167.668 159.801 166.889 159.801 166.089V163.497ZM166.281 162.249H167.609V176.745H166.281V162.249ZM170.488 173.785H183.608V174.889H170.488V173.785ZM176.36 170.313H177.672V174.105H176.36V170.313ZM172.024 163.273H173.352V165.849H180.712V163.273H182.024V170.681H172.024V163.273ZM173.352 166.937V169.593H180.712V166.937H173.352ZM186.87 169.193H196.806V170.281H186.87V169.193ZM185.206 173.657H198.326V174.761H185.206V173.657ZM186.87 163.593H196.662V164.681H188.182V169.673H186.87V163.593ZM205.797 167.881H208.517V168.969H205.797V167.881ZM210.949 162.249H212.229V176.729H210.949V162.249ZM208.069 162.553H209.333V175.993H208.069V162.553ZM203.173 163.465C203.802 163.465 204.346 163.668 204.805 164.073C205.274 164.479 205.637 165.06 205.893 165.817C206.149 166.575 206.277 167.465 206.277 168.489C206.277 169.524 206.149 170.42 205.893 171.177C205.637 171.935 205.274 172.521 204.805 172.937C204.346 173.343 203.802 173.545 203.173 173.545C202.565 173.545 202.026 173.343 201.557 172.937C201.098 172.521 200.741 171.935 200.485 171.177C200.229 170.42 200.101 169.524 200.101 168.489C200.101 167.465 200.229 166.575 200.485 165.817C200.741 165.06 201.098 164.479 201.557 164.073C202.026 163.668 202.565 163.465 203.173 163.465ZM203.173 164.697C202.8 164.697 202.474 164.852 202.197 165.161C201.92 165.471 201.706 165.908 201.557 166.473C201.408 167.039 201.333 167.711 201.333 168.489C201.333 169.268 201.408 169.945 201.557 170.521C201.706 171.087 201.92 171.524 202.197 171.833C202.474 172.143 202.8 172.297 203.173 172.297C203.557 172.297 203.888 172.143 204.165 171.833C204.453 171.524 204.672 171.087 204.821 170.521C204.97 169.945 205.045 169.268 205.045 168.489C205.045 167.711 204.97 167.039 204.821 166.473C204.672 165.908 204.453 165.471 204.165 165.161C203.888 164.852 203.557 164.697 203.173 164.697ZM221.876 167.161H225.892V168.249H221.876V167.161ZM218.372 163.497H219.46V166.089C219.46 166.889 219.358 167.679 219.156 168.457C218.964 169.236 218.686 169.961 218.324 170.633C217.961 171.305 217.534 171.903 217.044 172.425C216.564 172.948 216.036 173.364 215.46 173.673L214.628 172.601C215.161 172.345 215.652 171.988 216.1 171.529C216.558 171.071 216.958 170.548 217.3 169.961C217.641 169.364 217.902 168.74 218.084 168.089C218.276 167.428 218.372 166.761 218.372 166.089V163.497ZM218.644 163.497H219.716V166.089C219.716 166.74 219.806 167.385 219.988 168.025C220.18 168.665 220.446 169.268 220.788 169.833C221.129 170.388 221.524 170.884 221.972 171.321C222.43 171.759 222.921 172.1 223.444 172.345L222.644 173.417C222.068 173.119 221.534 172.719 221.044 172.217C220.553 171.716 220.126 171.14 219.764 170.489C219.412 169.839 219.134 169.14 218.932 168.393C218.74 167.647 218.644 166.879 218.644 166.089V163.497ZM225.236 162.249H226.548V176.745H225.236V162.249ZM233.816 173.769H246.936V174.873H233.816V173.769ZM239.688 170.025H241V174.073H239.688V170.025ZM235.352 163.449H245.336V170.265H235.352V163.449ZM244.04 164.521H236.648V169.209H244.04V164.521ZM250.326 167.625H259.99V168.713H250.326V167.625ZM248.518 170.601H261.638V171.689H248.518V170.601ZM254.39 171.209H255.702V176.681H254.39V171.209ZM250.326 163.097H259.798V164.185H251.67V168.153H250.326V163.097ZM268.49 163.369H274.89V164.473H268.49V163.369ZM270.666 166.601H271.978V170.217H270.666V166.601ZM274.362 163.369H275.658V164.137C275.658 164.617 275.642 165.215 275.61 165.929C275.589 166.644 275.482 167.476 275.29 168.425L273.978 168.297C274.17 167.337 274.282 166.521 274.314 165.849C274.346 165.177 274.362 164.607 274.362 164.137V163.369ZM277.626 162.249H278.97V173.145H277.626V162.249ZM278.362 166.953H281.034V168.073H278.362V166.953ZM269.818 175.321H279.434V176.409H269.818V175.321ZM269.818 172.153H271.146V175.641H269.818V172.153ZM267.754 170.841L267.61 169.753C268.464 169.753 269.408 169.743 270.442 169.721C271.477 169.7 272.528 169.657 273.594 169.593C274.661 169.519 275.685 169.417 276.666 169.289L276.746 170.265C275.754 170.436 274.725 170.564 273.658 170.649C272.592 170.735 271.552 170.788 270.538 170.809C269.536 170.831 268.608 170.841 267.754 170.841ZM292.969 162.249H294.281V176.745H292.969V162.249ZM283.257 172.137H284.457C285.278 172.137 286.068 172.127 286.825 172.105C287.593 172.073 288.366 172.02 289.145 171.945C289.934 171.871 290.756 171.764 291.609 171.625L291.737 172.713C290.436 172.927 289.209 173.071 288.057 173.145C286.905 173.209 285.705 173.241 284.457 173.241H283.257V172.137ZM283.225 163.593H289.913V168.761H284.601V172.553H283.257V167.689H288.569V164.681H283.225V163.593ZM306.952 162.249H308.264V176.729H306.952V162.249ZM307.96 168.201H310.632V169.321H307.96V168.201ZM297.064 164.569H305.592V165.657H297.064V164.569ZM301.4 166.841C302.082 166.841 302.685 166.985 303.208 167.273C303.741 167.561 304.157 167.956 304.456 168.457C304.765 168.948 304.92 169.519 304.92 170.169C304.92 170.82 304.765 171.396 304.456 171.897C304.157 172.399 303.741 172.793 303.208 173.081C302.685 173.359 302.082 173.497 301.4 173.497C300.717 173.497 300.109 173.359 299.576 173.081C299.053 172.793 298.637 172.399 298.328 171.897C298.018 171.396 297.864 170.82 297.864 170.169C297.864 169.519 298.018 168.948 298.328 168.457C298.637 167.956 299.053 167.561 299.576 167.273C300.109 166.985 300.717 166.841 301.4 166.841ZM301.4 167.945C300.962 167.945 300.573 168.041 300.232 168.233C299.89 168.425 299.618 168.687 299.416 169.017C299.224 169.348 299.128 169.732 299.128 170.169C299.128 170.607 299.224 170.996 299.416 171.337C299.618 171.668 299.89 171.929 300.232 172.121C300.573 172.303 300.962 172.393 301.4 172.393C301.826 172.393 302.21 172.303 302.552 172.121C302.893 171.929 303.16 171.668 303.352 171.337C303.554 170.996 303.656 170.607 303.656 170.169C303.656 169.732 303.554 169.348 303.352 169.017C303.16 168.687 302.893 168.425 302.552 168.233C302.21 168.041 301.826 167.945 301.4 167.945ZM300.712 162.425H302.04V165.049H300.712V162.425ZM317.559 167.433H320.343V168.537H317.559V167.433ZM314.871 163.609H315.911V166.377C315.911 167.124 315.831 167.86 315.671 168.585C315.521 169.311 315.297 169.993 314.999 170.633C314.711 171.273 314.359 171.849 313.943 172.361C313.527 172.873 313.057 173.289 312.535 173.609L311.703 172.617C312.193 172.319 312.636 171.945 313.031 171.497C313.425 171.049 313.756 170.548 314.023 169.993C314.3 169.428 314.508 168.841 314.647 168.233C314.796 167.615 314.871 166.996 314.871 166.377V163.609ZM315.127 163.609H316.151V166.329C316.151 166.905 316.215 167.487 316.343 168.073C316.481 168.649 316.673 169.204 316.919 169.737C317.175 170.26 317.489 170.74 317.863 171.177C318.236 171.615 318.657 171.977 319.127 172.265L318.375 173.289C317.852 172.969 317.388 172.564 316.983 172.073C316.577 171.572 316.236 171.012 315.959 170.393C315.681 169.764 315.473 169.103 315.335 168.409C315.196 167.716 315.127 167.023 315.127 166.329V163.609ZM322.887 162.249H324.167V176.729H322.887V162.249ZM319.943 162.553H321.191V175.993H319.943V162.553ZM329.797 169.705H331.109V174.025H329.797V169.705ZM335.141 169.705H336.469V174.025H335.141V169.705ZM326.581 173.769H339.701V174.873H326.581V173.769ZM333.109 163.161C334.133 163.161 335.04 163.316 335.829 163.625C336.619 163.935 337.237 164.367 337.685 164.921C338.144 165.476 338.373 166.132 338.373 166.889C338.373 167.636 338.144 168.292 337.685 168.857C337.237 169.412 336.619 169.844 335.829 170.153C335.04 170.452 334.133 170.601 333.109 170.601C332.096 170.601 331.189 170.452 330.389 170.153C329.6 169.844 328.981 169.412 328.533 168.857C328.085 168.292 327.861 167.636 327.861 166.889C327.861 166.132 328.085 165.476 328.533 164.921C328.981 164.367 329.6 163.935 330.389 163.625C331.189 163.316 332.096 163.161 333.109 163.161ZM333.109 164.217C332.341 164.217 331.659 164.329 331.061 164.553C330.464 164.777 329.995 165.092 329.653 165.497C329.312 165.892 329.141 166.356 329.141 166.889C329.141 167.423 329.312 167.892 329.653 168.297C329.995 168.692 330.464 169.001 331.061 169.225C331.659 169.449 332.341 169.561 333.109 169.561C333.888 169.561 334.576 169.449 335.173 169.225C335.771 169.001 336.24 168.692 336.581 168.297C336.923 167.892 337.093 167.423 337.093 166.889C337.093 166.356 336.923 165.892 336.581 165.497C336.24 165.092 335.771 164.777 335.173 164.553C334.576 164.329 333.888 164.217 333.109 164.217Z" fill="white"/>
</g>
<defs>
<filter id="filter0_d_145_89" x="24.8257" y="28.8252" width="382.38" height="76" filterUnits="userSpaceOnUse" color-interpolation-filters="sRGB">
<feFlood flood-opacity="0" result="BackgroundImageFix"/>
<feColorMatrix in="SourceAlpha" type="matrix" values="0 0 0 0 0 0 0 0 0 0 0 0 0 0 0 0 0 0 127 0" result="hardAlpha"/>
<feOffset dy="4"/>
<feGaussianBlur stdDeviation="4"/>
<feColorMatrix type="matrix" values="0 0 0 0 0 0 0 0 0 0 0 0 0 0 0 0 0 0 0.15 0"/>
<feBlend mode="normal" in2="BackgroundImageFix" result="effect1_dropShadow_145_89"/>
<feBlend mode="normal" in="SourceGraphic" in2="effect1_dropShadow_145_89" result="shape"/>
</filter>
<filter id="filter1_d_145_89" x="26.8257" y="129.812" width="378.38" height="64.0049" filterUnits="userSpaceOnUse" color-interpolation-filters="sRGB">
<feFlood flood-opacity="0" result="BackgroundImageFix"/>
<feColorMatrix in="SourceAlpha" type="matrix" values="0 0 0 0 0 0 0 0 0 0 0 0 0 0 0 0 0 0 127 0" result="hardAlpha"/>
<feOffset dy="3"/>
<feGaussianBlur stdDeviation="3"/>
<feColorMatrix type="matrix" values="0 0 0 0 0 0 0 0 0 0 0 0 0 0 0 0 0 0 0.12 0"/>
<feBlend mode="normal" in2="BackgroundImageFix" result="effect1_dropShadow_145_89"/>
<feBlend mode="normal" in="SourceGraphic" in2="effect1_dropShadow_145_89" result="shape"/>
</filter>
</defs>
</svg>
