<svg width="343" height="130" viewBox="0 0 343 130" fill="none" xmlns="http://www.w3.org/2000/svg">
<g clip-path="url(#clip0_145_78)">
<g filter="url(#filter0_f_145_78)">
<path d="M-7.99463 16.0049C-7.99463 2.75006 2.75054 -7.99512 16.0054 -7.99512H326.521C339.776 -7.99512 350.521 2.75005 350.521 16.0049V113.656C350.521 126.911 339.776 137.656 326.521 137.656H16.0054C2.75054 137.656 -7.99463 126.911 -7.99463 113.656V16.0049Z" fill="white" fill-opacity="0.2"/>
</g>
<g filter="url(#filter1_d_145_78)">
<mask id="path-2-inside-1_145_78" fill="white">
<path d="M0 24C0 10.7452 10.7452 0 24 0H318.526C331.781 0 342.526 10.7452 342.526 24V105.661C342.526 118.916 331.781 129.661 318.526 129.661H24C10.7451 129.661 0 118.916 0 105.661V24Z"/>
</mask>
<path d="M0 24C0 10.7452 10.7452 0 24 0H318.526C331.781 0 342.526 10.7452 342.526 24V105.661C342.526 118.916 331.781 129.661 318.526 129.661H24C10.7451 129.661 0 118.916 0 105.661V24Z" fill="white" fill-opacity="0.1" shape-rendering="crispEdges"/>
<path d="M24 0V0.833333H318.526V0V-0.833333H24V0ZM342.526 24H341.693V105.661H342.526H343.359V24H342.526ZM318.526 129.661V128.828H24V129.661V130.495H318.526V129.661ZM0 105.661H0.833333V24H0H-0.833333V105.661H0ZM24 129.661V128.828C11.2054 128.828 0.833333 118.456 0.833333 105.661H0H-0.833333C-0.833333 119.377 10.2849 130.495 24 130.495V129.661ZM342.526 105.661H341.693C341.693 118.456 331.321 128.828 318.526 128.828V129.661V130.495C332.241 130.495 343.359 119.377 343.359 105.661H342.526ZM318.526 0V0.833333C331.321 0.833333 341.693 11.2054 341.693 24H342.526H343.359C343.359 10.2849 332.241 -0.833333 318.526 -0.833333V0ZM24 0V-0.833333C10.2849 -0.833333 -0.833333 10.2849 -0.833333 24H0H0.833333C0.833333 11.2054 11.2054 0.833333 24 0.833333V0Z" fill="white" fill-opacity="0.2" mask="url(#path-2-inside-1_145_78)"/>
<path d="M24.8308 34.8311C24.8308 29.3082 29.308 24.8311 34.8308 24.8311H94.8308C100.354 24.8311 104.831 29.3082 104.831 34.8311V94.8311C104.831 100.354 100.354 104.831 94.8308 104.831H34.8308C29.308 104.831 24.8308 100.354 24.8308 94.8311V34.8311Z" fill="#00D5BE"/>
<path d="M46.8311 64.8248H54.8279L60.8255 46.832L68.8224 82.8177L74.82 64.8248H82.8167" stroke="white" stroke-width="3.99841" stroke-linecap="round" stroke-linejoin="round"/>
<path d="M132.815 75.4568C136.584 75.4568 139.192 73.5725 140.641 69.8037L146.062 71.8498C144.895 74.7186 143.179 76.8561 140.915 78.2623C138.665 79.6545 135.965 80.3506 132.815 80.3506C129.637 80.3506 126.93 79.7459 124.694 78.5365C122.458 77.3131 120.749 75.5482 119.568 73.242C118.401 70.9357 117.817 68.1654 117.817 64.9311C117.817 61.6686 118.38 58.9123 119.505 56.6623C120.63 54.4123 122.289 52.7037 124.483 51.5365C126.677 50.3553 129.363 49.7646 132.541 49.7646C136.028 49.7646 138.869 50.4678 141.063 51.874C143.256 53.2662 144.796 55.3193 145.682 58.0334L140.198 59.5311C139.734 58.0404 138.82 56.8592 137.456 55.9873C136.106 55.1014 134.51 54.6584 132.667 54.6584C129.855 54.6584 127.717 55.5303 126.255 57.274C124.806 59.0178 124.082 61.5701 124.082 64.9311C124.082 67.2092 124.413 69.1287 125.074 70.6896C125.749 72.2506 126.733 73.4389 128.027 74.2545C129.335 75.0561 130.931 75.4568 132.815 75.4568ZM155.014 80.3506C152.806 80.3506 151.084 79.7529 149.846 78.5576C148.609 77.3482 147.99 75.6537 147.99 73.474C147.99 71.1115 148.756 69.3186 150.289 68.0951C151.836 66.8717 154.072 66.2318 156.997 66.1756L161.912 66.0912V64.9311C161.912 63.4404 161.652 62.3365 161.131 61.6193C160.611 60.8881 159.76 60.5225 158.579 60.5225C157.482 60.5225 156.673 60.7756 156.153 61.2818C155.647 61.774 155.33 62.5967 155.204 63.7498L149.023 63.4545C149.797 58.9404 153.066 56.6834 158.832 56.6834C161.715 56.6834 163.937 57.3936 165.498 58.8139C167.059 60.2342 167.839 62.2521 167.839 64.8678V73.1787C167.839 74.4584 167.98 75.3443 168.261 75.8365C168.556 76.3146 169.041 76.5537 169.716 76.5537C170.166 76.5537 170.602 76.5115 171.024 76.4271V79.6334C170.293 79.8162 169.667 79.9498 169.147 80.0342C168.627 80.1326 167.987 80.1818 167.227 80.1818C165.737 80.1818 164.633 79.8162 163.916 79.085C163.213 78.3537 162.791 77.2779 162.65 75.8576H162.523C161.694 77.3482 160.653 78.4732 159.402 79.2326C158.15 79.9779 156.688 80.3506 155.014 80.3506ZM161.912 69.3607L158.874 69.4029C157.482 69.4732 156.505 69.6209 155.942 69.8459C155.366 70.099 154.923 70.4787 154.613 70.985C154.318 71.4912 154.17 72.1662 154.17 73.01C154.17 74.0928 154.416 74.9014 154.909 75.4357C155.415 75.9561 156.083 76.2162 156.913 76.2162C157.841 76.2162 158.691 75.9631 159.465 75.4568C160.224 74.9506 160.822 74.2545 161.258 73.3686C161.694 72.4686 161.912 71.5193 161.912 70.5209V69.3607ZM179.175 68.7279V79.9287H173.248V62.4631C173.248 61.2115 173.226 60.1709 173.184 59.3412C173.156 58.4975 173.121 57.7521 173.079 57.1053H178.732C178.76 57.2318 178.788 57.5131 178.816 57.949C178.844 58.385 178.873 58.8771 178.901 59.4256C178.929 59.96 178.95 60.4662 178.964 60.9443C178.992 61.4225 179.006 61.767 179.006 61.9779H179.09C179.653 60.4029 180.166 59.2709 180.63 58.5818C181.08 57.9209 181.615 57.4357 182.233 57.1264C182.852 56.817 183.626 56.6623 184.554 56.6623C185.313 56.6623 185.925 56.7678 186.389 56.9787V61.9357C185.447 61.7248 184.603 61.6193 183.858 61.6193C182.381 61.6193 181.228 62.217 180.398 63.4123C179.583 64.6076 179.175 66.3795 179.175 68.7279ZM194.434 69.6561C194.434 71.8779 194.842 73.5584 195.658 74.6975C196.487 75.8225 197.661 76.385 199.18 76.385C200.221 76.385 201.072 76.16 201.733 75.71C202.408 75.2459 202.879 74.5639 203.146 73.6639L208.736 74.149C207.118 78.2834 203.835 80.3506 198.885 80.3506C195.454 80.3506 192.817 79.3381 190.975 77.3131C189.133 75.274 188.211 72.3068 188.211 68.4115C188.211 64.6428 189.147 61.7459 191.017 59.7209C192.887 57.6959 195.538 56.6834 198.969 56.6834C202.246 56.6834 204.749 57.7732 206.479 59.9529C208.208 62.1186 209.073 65.2967 209.073 69.4873V69.6561H194.434ZM203.336 65.9436C203.223 64.1014 202.78 62.7232 202.007 61.8092C201.233 60.8811 200.193 60.417 198.885 60.417C197.493 60.417 196.417 60.9021 195.658 61.8725C194.912 62.8428 194.518 64.1998 194.476 65.9436H203.336ZM250.033 50.2076L239.106 79.9287H232.799L221.81 50.2076H228.306L234.424 69.2975C234.62 69.9162 234.845 70.6967 235.099 71.6389C235.366 72.567 235.661 73.6568 235.985 74.9084C236.449 73.1506 236.779 71.8779 236.976 71.0904C237.187 70.3029 237.363 69.7053 237.503 69.2975L243.599 50.2076H250.033ZM257.931 48.6256V52.992H252.003V48.6256H257.931ZM257.931 57.1053V79.9287H252.003V57.1053H257.931ZM268.38 69.6561C268.38 71.8779 268.788 73.5584 269.604 74.6975C270.433 75.8225 271.608 76.385 273.126 76.385C274.167 76.385 275.018 76.16 275.679 75.71C276.354 75.2459 276.825 74.5639 277.092 73.6639L282.682 74.149C281.065 78.2834 277.781 80.3506 272.831 80.3506C269.4 80.3506 266.763 79.3381 264.921 77.3131C263.079 75.274 262.158 72.3068 262.158 68.4115C262.158 64.6428 263.093 61.7459 264.963 59.7209C266.833 57.6959 269.484 56.6834 272.915 56.6834C276.192 56.6834 278.695 57.7732 280.425 59.9529C282.155 62.1186 283.019 65.2967 283.019 69.4873V69.6561H268.38ZM277.282 65.9436C277.169 64.1014 276.726 62.7232 275.953 61.8092C275.18 60.8811 274.139 60.417 272.831 60.417C271.439 60.417 270.363 60.9021 269.604 61.8725C268.858 62.8428 268.465 64.1998 268.423 65.9436H277.282ZM299.692 66.049L296.022 79.9287H289.757L283.85 57.1053H289.419L292.33 70.6053C292.471 71.2521 292.611 71.9061 292.752 72.567C292.893 73.2279 293.033 73.8889 293.174 74.5498C293.315 73.8748 293.441 73.1998 293.554 72.5248C293.666 71.8498 293.814 71.1818 293.997 70.5209L297.583 57.1053H303.932L307.433 70.5209C307.532 70.8865 307.651 71.4068 307.792 72.0818C307.947 72.7428 308.115 73.5654 308.298 74.5498C308.453 73.8748 308.6 73.2068 308.741 72.5459C308.896 71.8709 309.043 71.1959 309.184 70.5209L312.179 57.1053H317.664L311.673 79.9287H305.408L301.78 66.0068C301.696 65.6834 301.569 65.135 301.4 64.3615C301.232 63.574 301.028 62.5615 300.789 61.324C300.606 62.1115 300.43 62.899 300.261 63.6865C300.093 64.474 299.903 65.2615 299.692 66.049Z" fill="white"/>
</g>
</g>
<defs>
<filter id="filter0_f_145_78" x="-55.9946" y="-55.9951" width="454.516" height="241.651" filterUnits="userSpaceOnUse" color-interpolation-filters="sRGB">
<feFlood flood-opacity="0" result="BackgroundImageFix"/>
<feBlend mode="normal" in="SourceGraphic" in2="BackgroundImageFix" result="shape"/>
<feGaussianBlur stdDeviation="24" result="effect1_foregroundBlur_145_78"/>
</filter>
<filter id="filter1_d_145_78" x="-38" y="-13" width="418.526" height="205.661" filterUnits="userSpaceOnUse" color-interpolation-filters="sRGB">
<feFlood flood-opacity="0" result="BackgroundImageFix"/>
<feColorMatrix in="SourceAlpha" type="matrix" values="0 0 0 0 0 0 0 0 0 0 0 0 0 0 0 0 0 0 127 0" result="hardAlpha"/>
<feMorphology radius="12" operator="erode" in="SourceAlpha" result="effect1_dropShadow_145_78"/>
<feOffset dy="25"/>
<feGaussianBlur stdDeviation="25"/>
<feComposite in2="hardAlpha" operator="out"/>
<feColorMatrix type="matrix" values="0 0 0 0 0 0 0 0 0 0 0 0 0 0 0 0 0 0 0.25 0"/>
<feBlend mode="normal" in2="BackgroundImageFix" result="effect1_dropShadow_145_78"/>
<feBlend mode="normal" in="SourceGraphic" in2="effect1_dropShadow_145_78" result="shape"/>
</filter>
<clipPath id="clip0_145_78">
<rect width="342.526" height="129.661" fill="white"/>
</clipPath>
</defs>
</svg>
