<svg width="383" height="48" viewBox="0 0 383 48" fill="none" xmlns="http://www.w3.org/2000/svg">
<mask id="path-1-inside-1_145_53" fill="white">
<path d="M0 14C0 6.26803 6.26801 0 14 0H368.344C376.076 0 382.344 6.26802 382.344 14V33.9948C382.344 41.7268 376.076 47.9948 368.344 47.9948H14C6.26801 47.9948 0 41.7268 0 33.9948V14Z"/>
</mask>
<path d="M0 14C0 6.26803 6.26801 0 14 0H368.344C376.076 0 382.344 6.26802 382.344 14V33.9948C382.344 41.7268 376.076 47.9948 368.344 47.9948H14C6.26801 47.9948 0 41.7268 0 33.9948V14Z" fill="white" fill-opacity="0.6"/>
<path d="M14 0V0.833333H368.344V0V-0.833333H14V0ZM382.344 14H381.51V33.9948H382.344H383.177V14H382.344ZM368.344 47.9948V47.1615H14V47.9948V48.8281H368.344V47.9948ZM0 33.9948H0.833333V14H0H-0.833333V33.9948H0ZM14 47.9948V47.1615C6.72825 47.1615 0.833333 41.2665 0.833333 33.9948H0H-0.833333C-0.833333 42.187 5.80778 48.8281 14 48.8281V47.9948ZM382.344 33.9948H381.51C381.51 41.2665 375.616 47.1615 368.344 47.1615V47.9948V48.8281C376.536 48.8281 383.177 42.187 383.177 33.9948H382.344ZM368.344 0V0.833333C375.616 0.833333 381.51 6.72825 381.51 14H382.344H383.177C383.177 5.80778 376.536 -0.833333 368.344 -0.833333V0ZM14 0V-0.833333C5.80778 -0.833333 -0.833333 5.80779 -0.833333 14H0H0.833333C0.833333 6.72826 6.72825 0.833333 14 0.833333V0Z" fill="#E5E7EB" mask="url(#path-1-inside-1_145_53)"/>
<g clip-path="url(#clip0_145_53)">
<path d="M129.757 24.1641C129.757 23.6444 129.71 23.1447 129.623 22.665H122.721V25.5032H126.665C126.492 26.4159 125.972 27.1888 125.193 27.7084V29.5539H127.571C128.957 28.2747 129.757 26.3959 129.757 24.1641Z" fill="#4285F4"/>
<path d="M122.721 31.326C124.7 31.326 126.359 30.6731 127.571 29.5538L125.193 27.7083C124.54 28.148 123.707 28.4145 122.721 28.4145C120.816 28.4145 119.197 27.1287 118.617 25.3965H116.179V27.2886C117.385 29.6804 119.856 31.326 122.721 31.326Z" fill="#34A853"/>
<path d="M118.617 25.3898C118.471 24.9501 118.384 24.4838 118.384 23.9974C118.384 23.5111 118.471 23.0447 118.617 22.605V20.7129H116.179C115.679 21.6989 115.393 22.8115 115.393 23.9974C115.393 25.1833 115.679 26.2959 116.179 27.282L118.077 25.8029L118.617 25.3898Z" fill="#FBBC05"/>
<path d="M122.721 19.587C123.8 19.587 124.76 19.9601 125.526 20.6797L127.625 18.581C126.352 17.3951 124.7 16.6689 122.721 16.6689C119.856 16.6689 117.385 18.3145 116.179 20.713L118.617 22.6051C119.197 20.8729 120.816 19.587 122.721 19.587Z" fill="#EA4335"/>
</g>
<path d="M152.263 26.0742C152.892 26.0742 153.478 25.9785 154.02 25.7871C154.567 25.5957 155.009 25.3359 155.346 25.0078V23.2715H152.468V22.1777H156.549V25.5C156.039 26.0195 155.412 26.4229 154.669 26.71C153.931 26.9925 153.129 27.1338 152.263 27.1338C151.261 27.1338 150.397 26.931 149.672 26.5254C148.948 26.1198 148.389 25.5433 147.998 24.7959C147.606 24.0439 147.41 23.1576 147.41 22.1367C147.41 20.5736 147.829 19.3636 148.667 18.5068C149.506 17.6501 150.684 17.2217 152.202 17.2217C153.268 17.2217 154.134 17.4017 154.799 17.7617C155.465 18.1217 155.977 18.6982 156.337 19.4912L155.093 19.8604C154.82 19.3135 154.442 18.9147 153.958 18.6641C153.48 18.4134 152.883 18.2881 152.167 18.2881C151.056 18.2881 150.206 18.6253 149.618 19.2998C149.03 19.9697 148.736 20.9154 148.736 22.1367C148.736 23.3535 149.048 24.3151 149.672 25.0215C150.297 25.7233 151.16 26.0742 152.263 26.0742ZM164.8 23.292C164.8 24.5863 164.515 25.5501 163.946 26.1836C163.376 26.8171 162.549 27.1338 161.464 27.1338C160.384 27.1338 159.569 26.8057 159.017 26.1494C158.466 25.4886 158.19 24.5361 158.19 23.292C158.19 22.016 158.466 21.0589 159.017 20.4209C159.573 19.7829 160.403 19.4639 161.505 19.4639C162.636 19.4639 163.467 19.776 164 20.4004C164.534 21.0202 164.8 21.984 164.8 23.292ZM163.508 23.292C163.508 22.2712 163.356 21.5306 163.05 21.0703C162.75 20.6055 162.241 20.373 161.526 20.373C160.806 20.373 160.284 20.61 159.96 21.084C159.641 21.5534 159.482 22.2894 159.482 23.292C159.482 24.2673 159.639 25.001 159.954 25.4932C160.273 25.9808 160.772 26.2246 161.451 26.2246C162.189 26.2246 162.715 25.9876 163.03 25.5137C163.349 25.0397 163.508 24.2992 163.508 23.292ZM172.593 23.292C172.593 24.5863 172.308 25.5501 171.739 26.1836C171.169 26.8171 170.342 27.1338 169.257 27.1338C168.177 27.1338 167.361 26.8057 166.81 26.1494C166.259 25.4886 165.983 24.5361 165.983 23.292C165.983 22.016 166.259 21.0589 166.81 20.4209C167.366 19.7829 168.195 19.4639 169.298 19.4639C170.429 19.4639 171.26 19.776 171.793 20.4004C172.327 21.0202 172.593 21.984 172.593 23.292ZM171.301 23.292C171.301 22.2712 171.149 21.5306 170.843 21.0703C170.542 20.6055 170.034 20.373 169.319 20.373C168.599 20.373 168.077 20.61 167.753 21.084C167.434 21.5534 167.275 22.2894 167.275 23.292C167.275 24.2673 167.432 25.001 167.747 25.4932C168.066 25.9808 168.565 26.2246 169.244 26.2246C169.982 26.2246 170.508 25.9876 170.823 25.5137C171.142 25.0397 171.301 24.2992 171.301 23.292ZM176.934 29.9023C176.127 29.9023 175.485 29.7428 175.006 29.4238C174.528 29.1094 174.22 28.6605 174.083 28.0771L175.321 27.8994C175.403 28.2412 175.583 28.5033 175.861 28.6855C176.143 28.8724 176.513 28.9658 176.968 28.9658C177.579 28.9658 178.037 28.7858 178.342 28.4258C178.652 28.0658 178.807 27.528 178.807 26.8125V25.623H178.793C178.561 26.097 178.242 26.4548 177.836 26.6963C177.431 26.9333 176.957 27.0518 176.415 27.0518C175.508 27.0518 174.84 26.751 174.412 26.1494C173.988 25.5479 173.776 24.6022 173.776 23.3125C173.776 22.0046 174.004 21.0407 174.459 20.4209C174.92 19.7965 175.617 19.4844 176.551 19.4844C177.075 19.4844 177.529 19.6051 177.912 19.8467C178.299 20.0837 178.597 20.4232 178.807 20.8652H178.821C178.821 20.7741 178.825 20.6328 178.834 20.4414C178.844 20.2454 178.855 20.0609 178.869 19.8877C178.882 19.7145 178.894 19.6188 178.903 19.6006H180.072C180.044 19.8467 180.031 20.3571 180.031 21.1318V26.7852C180.031 27.8242 179.773 28.6035 179.258 29.123C178.743 29.6426 177.969 29.9023 176.934 29.9023ZM178.807 23.2988C178.807 22.401 178.623 21.6947 178.253 21.1797C177.889 20.6602 177.422 20.4004 176.852 20.4004C176.223 20.4004 175.765 20.6283 175.478 21.084C175.191 21.5397 175.047 22.278 175.047 23.2988C175.047 24.3105 175.182 25.0374 175.451 25.4795C175.72 25.9215 176.18 26.1426 176.832 26.1426C177.415 26.1426 177.889 25.8896 178.253 25.3838C178.623 24.8734 178.807 24.1784 178.807 23.2988ZM183.155 16.8525V26.9971H181.924V16.8525H183.155ZM185.985 23.5586C185.985 24.4062 186.16 25.0602 186.511 25.5205C186.862 25.9808 187.375 26.2109 188.049 26.2109C188.583 26.2109 189.009 26.1038 189.328 25.8896C189.651 25.6755 189.87 25.4043 189.984 25.0762L191.064 25.3838C190.622 26.5505 189.617 27.1338 188.049 27.1338C186.956 27.1338 186.122 26.8079 185.547 26.1562C184.978 25.5046 184.693 24.5361 184.693 23.251C184.693 22.0296 184.978 21.0931 185.547 20.4414C186.122 19.7897 186.94 19.4639 188.001 19.4639C189.091 19.4639 189.906 19.792 190.449 20.4482C190.991 21.1045 191.262 22.0866 191.262 23.3945V23.5586H185.985ZM189.991 22.6152C189.922 21.8359 189.724 21.2686 189.396 20.9131C189.068 20.5531 188.596 20.373 187.981 20.373C187.384 20.373 186.91 20.5736 186.559 20.9746C186.213 21.3711 186.026 21.918 185.999 22.6152H189.991ZM192.591 25.5551H204.071V26.5211H192.591V25.5551ZM197.729 22.8531H198.877V25.9611H197.729V22.8531ZM193.991 16.3571H202.643V20.1931H195.167V22.7271H194.019V19.2691H201.495V17.3091H193.991V16.3571ZM194.019 22.2371H202.937V23.1891H194.019V22.2371ZM214.281 18.9331H217.081V19.8851H214.281V18.9331ZM214.183 22.1111H217.053V23.0631H214.183V22.1111ZM219.013 15.4191H220.133V28.0891H219.013V15.4191ZM216.465 15.7551H217.571V27.4451H216.465V15.7551ZM213.651 17.0291H214.771C214.771 18.1304 214.612 19.1897 214.295 20.2071C213.977 21.2151 213.469 22.1577 212.769 23.0351C212.078 23.9031 211.168 24.6777 210.039 25.3591L209.353 24.5191C210.342 23.9217 211.154 23.2497 211.789 22.5031C212.423 21.7471 212.89 20.9304 213.189 20.0531C213.497 19.1664 213.651 18.2284 213.651 17.2391V17.0291ZM209.913 17.0291H214.099V17.9811H209.913V17.0291ZM222.245 21.7751H233.711V22.7271H222.245V21.7751ZM227.383 19.8431H228.531V22.2091H227.383V19.8431ZM227.369 15.6151H228.363V16.1891C228.363 16.6371 228.275 17.0617 228.097 17.4631C227.92 17.8644 227.668 18.2331 227.341 18.5691C227.024 18.9051 226.655 19.2037 226.235 19.4651C225.815 19.7171 225.363 19.9364 224.877 20.1231C224.392 20.3004 223.888 20.4311 223.365 20.5151L222.931 19.5911C223.379 19.5257 223.818 19.4231 224.247 19.2831C224.686 19.1337 225.092 18.9564 225.465 18.7511C225.839 18.5364 226.165 18.2937 226.445 18.0231C226.735 17.7524 226.959 17.4631 227.117 17.1551C227.285 16.8471 227.369 16.5251 227.369 16.1891V15.6151ZM227.551 15.6151H228.545V16.1891C228.545 16.5251 228.625 16.8471 228.783 17.1551C228.942 17.4631 229.166 17.7524 229.455 18.0231C229.745 18.2844 230.076 18.5224 230.449 18.7371C230.823 18.9517 231.224 19.1337 231.653 19.2831C232.092 19.4231 232.535 19.5257 232.983 19.5911L232.535 20.5151C232.022 20.4311 231.523 20.3004 231.037 20.1231C230.561 19.9364 230.109 19.7124 229.679 19.4511C229.259 19.1897 228.886 18.8957 228.559 18.5691C228.242 18.2331 227.995 17.8691 227.817 17.4771C227.64 17.0757 227.551 16.6464 227.551 16.1891V15.6151ZM223.519 23.9591H232.269V28.0891H231.107V24.8831H223.519V23.9591ZM243.706 15.4191H244.854V28.0891H243.706V15.4191ZM244.588 20.6271H246.926V21.6071H244.588V20.6271ZM235.054 17.4491H242.516V18.4011H235.054V17.4491ZM238.848 19.4371C239.446 19.4371 239.973 19.5631 240.43 19.8151C240.897 20.0671 241.261 20.4124 241.522 20.8511C241.793 21.2804 241.928 21.7797 241.928 22.3491C241.928 22.9184 241.793 23.4224 241.522 23.8611C241.261 24.2997 240.897 24.6451 240.43 24.8971C239.973 25.1397 239.446 25.2611 238.848 25.2611C238.251 25.2611 237.719 25.1397 237.252 24.8971C236.795 24.6451 236.431 24.2997 236.16 23.8611C235.89 23.4224 235.754 22.9184 235.754 22.3491C235.754 21.7797 235.89 21.2804 236.16 20.8511C236.431 20.4124 236.795 20.0671 237.252 19.8151C237.719 19.5631 238.251 19.4371 238.848 19.4371ZM238.848 20.4031C238.466 20.4031 238.125 20.4871 237.826 20.6551C237.528 20.8231 237.29 21.0517 237.112 21.3411C236.944 21.6304 236.86 21.9664 236.86 22.3491C236.86 22.7317 236.944 23.0724 237.112 23.3711C237.29 23.6604 237.528 23.8891 237.826 24.0571C238.125 24.2157 238.466 24.2951 238.848 24.2951C239.222 24.2951 239.558 24.2157 239.856 24.0571C240.155 23.8891 240.388 23.6604 240.556 23.3711C240.734 23.0724 240.822 22.7317 240.822 22.3491C240.822 21.9664 240.734 21.6304 240.556 21.3411C240.388 21.0517 240.155 20.8231 239.856 20.6551C239.558 20.4871 239.222 20.4031 238.848 20.4031ZM238.246 15.5731H239.408V17.8691H238.246V15.5731ZM257.229 15.4191H258.391V28.0891H257.229V15.4191ZM253.519 16.7911H254.667C254.667 17.7057 254.555 18.5877 254.331 19.4371C254.117 20.2864 253.776 21.0937 253.309 21.8591C252.843 22.6151 252.236 23.3197 251.489 23.9731C250.743 24.6264 249.837 25.2097 248.773 25.7231L248.157 24.7851C249.38 24.1971 250.388 23.5111 251.181 22.7271C251.975 21.9431 252.563 21.0704 252.945 20.1091C253.328 19.1384 253.519 18.0931 253.519 16.9731V16.7911ZM248.745 16.7911H254.009V17.7291H248.745V16.7911Z" fill="#0A0A0A"/>
<defs>
<clipPath id="clip0_145_53">
<rect width="15.9896" height="15.9896" fill="white" transform="translate(114.727 16.0029)"/>
</clipPath>
</defs>
</svg>
