<svg width="472" height="80" viewBox="0 0 472 80" fill="none" xmlns="http://www.w3.org/2000/svg">
<g filter="url(#filter0_dd_14_5625)">
<path d="M12 9.99999C12 5.58172 15.5817 2 20 2H451.986C456.404 2 459.986 5.58172 459.986 10V49.9896C459.986 54.4079 456.404 57.9896 451.986 57.9896H20C15.5817 57.9896 12 54.4079 12 49.9896V9.99999Z" fill="#2DD4BF" shape-rendering="crispEdges"/>
<path d="M208.914 30.9967H210.375V33.6191H208.914V30.9967ZM215.884 21.4399H217.344V37.3679H215.884V21.4399ZM204.672 34.3407L204.461 33.1087C205.47 33.097 206.561 33.0853 207.735 33.0735C208.908 33.0618 210.105 33.0207 211.325 32.9503C212.545 32.8799 213.725 32.7685 214.863 32.6159L214.968 33.7071C213.795 33.8949 212.604 34.0357 211.396 34.1295C210.187 34.2117 209.008 34.2703 207.858 34.3055C206.708 34.329 205.646 34.3407 204.672 34.3407ZM204.796 23.3935H214.458V24.5727H204.796V23.3935ZM209.618 25.4703C210.381 25.4703 211.049 25.5935 211.624 25.8399C212.199 26.0863 212.645 26.4324 212.962 26.8783C213.29 27.3124 213.455 27.8287 213.455 28.4271C213.455 29.0138 213.29 29.5301 212.962 29.9759C212.645 30.4218 212.199 30.7679 211.624 31.0143C211.049 31.249 210.381 31.3663 209.618 31.3663C208.867 31.3663 208.204 31.249 207.629 31.0143C207.054 30.7679 206.608 30.4218 206.292 29.9759C205.975 29.5301 205.816 29.0138 205.816 28.4271C205.816 27.8287 205.975 27.3124 206.292 26.8783C206.608 26.4324 207.054 26.0863 207.629 25.8399C208.204 25.5935 208.867 25.4703 209.618 25.4703ZM209.618 26.6143C208.914 26.6143 208.333 26.7786 207.876 27.1071C207.418 27.4357 207.189 27.8756 207.189 28.4271C207.189 28.9669 207.418 29.401 207.876 29.7295C208.333 30.0581 208.914 30.2223 209.618 30.2223C210.345 30.2223 210.932 30.0581 211.378 29.7295C211.836 29.401 212.064 28.9669 212.064 28.4271C212.064 27.8756 211.836 27.4357 211.378 27.1071C210.932 26.7786 210.345 26.6143 209.618 26.6143ZM208.914 21.4575H210.375V24.0271H208.914V21.4575ZM225.069 29.4655H226.53V33.0031H225.069V29.4655ZM232.127 21.4575H233.588V33.5487H232.127V21.4575ZM222.729 35.8191H233.975V37.0159H222.729V35.8191ZM222.729 32.3695H224.189V36.1359H222.729V32.3695ZM220.669 30.0111L220.476 28.7967C221.461 28.7967 222.529 28.7909 223.679 28.7791C224.841 28.7556 226.026 28.7146 227.234 28.6559C228.443 28.5855 229.61 28.4799 230.737 28.3391L230.842 29.3951C229.704 29.5828 228.531 29.7237 227.322 29.8175C226.125 29.8997 224.958 29.9525 223.82 29.9759C222.682 29.9994 221.632 30.0111 220.669 30.0111ZM228.889 30.8559H232.514V31.9119H228.889V30.8559ZM225.65 22.0911C226.436 22.0911 227.123 22.2084 227.709 22.4431C228.296 22.666 228.748 22.9887 229.065 23.4111C229.393 23.8218 229.557 24.3087 229.557 24.8719C229.557 25.4234 229.393 25.9103 229.065 26.3327C228.748 26.7551 228.296 27.0778 227.709 27.3007C227.123 27.5236 226.436 27.6351 225.65 27.6351C224.876 27.6351 224.189 27.5236 223.591 27.3007C223.004 27.0778 222.547 26.7551 222.218 26.3327C221.901 25.9103 221.743 25.4234 221.743 24.8719C221.743 24.3087 221.901 23.8218 222.218 23.4111C222.547 22.9887 223.004 22.666 223.591 22.4431C224.189 22.2084 224.876 22.0911 225.65 22.0911ZM225.65 23.1823C224.899 23.1823 224.289 23.3348 223.82 23.6399C223.35 23.945 223.116 24.3556 223.116 24.8719C223.116 25.3764 223.35 25.7812 223.82 26.0863C224.289 26.3914 224.899 26.5439 225.65 26.5439C226.389 26.5439 226.994 26.3914 227.463 26.0863C227.932 25.7812 228.167 25.3764 228.167 24.8719C228.167 24.5199 228.061 24.2207 227.85 23.9743C227.639 23.7279 227.346 23.5343 226.97 23.3935C226.595 23.2527 226.155 23.1823 225.65 23.1823ZM247.526 21.4399H248.986V37.3503H247.526V21.4399ZM248.599 27.8991H251.521V29.1135H248.599V27.8991ZM243.46 23.1471H244.886C244.886 24.6607 244.639 26.1098 244.146 27.4943C243.654 28.8671 242.879 30.1402 241.823 31.3135C240.767 32.4751 239.377 33.4842 237.652 34.3407L236.842 33.2143C238.321 32.4751 239.547 31.6127 240.521 30.6271C241.506 29.6298 242.24 28.5268 242.721 27.3183C243.214 26.0981 243.46 24.7839 243.46 23.3759V23.1471ZM237.582 23.1471H244.199V24.3615H237.582V23.1471ZM264.526 21.4399H265.987V29.9935H264.526V21.4399ZM255.743 30.7855H257.169V32.7039H264.543V30.7855H265.987V37.1567H255.743V30.7855ZM257.169 33.8655V35.9599H264.543V33.8655H257.169ZM257.451 22.1967C258.26 22.1967 258.976 22.3551 259.598 22.6719C260.22 22.977 260.707 23.4053 261.059 23.9567C261.422 24.5082 261.604 25.1476 261.604 25.8751C261.604 26.5909 261.422 27.2303 261.059 27.7935C260.707 28.345 260.22 28.7732 259.598 29.0783C258.976 29.3834 258.26 29.5359 257.451 29.5359C256.653 29.5359 255.937 29.3834 255.303 29.0783C254.682 28.7732 254.189 28.345 253.825 27.7935C253.473 27.2303 253.297 26.5909 253.297 25.8751C253.297 25.1476 253.473 24.5082 253.825 23.9567C254.189 23.4053 254.682 22.977 255.303 22.6719C255.937 22.3551 256.653 22.1967 257.451 22.1967ZM257.451 23.4287C256.923 23.4287 256.453 23.5343 256.043 23.7455C255.632 23.945 255.309 24.2324 255.075 24.6079C254.84 24.9716 254.723 25.394 254.723 25.8751C254.723 26.3444 254.84 26.7668 255.075 27.1423C255.309 27.506 255.632 27.7935 256.043 28.0047C256.453 28.2159 256.923 28.3215 257.451 28.3215C257.979 28.3215 258.448 28.2159 258.859 28.0047C259.269 27.7935 259.592 27.506 259.827 27.1423C260.061 26.7668 260.179 26.3444 260.179 25.8751C260.179 25.394 260.061 24.9716 259.827 24.6079C259.592 24.2324 259.269 23.945 258.859 23.7455C258.448 23.5343 257.979 23.4287 257.451 23.4287Z" fill="white"/>
</g>
<defs>
<filter id="filter0_dd_14_5625" x="0" y="0" width="471.986" height="79.9893" filterUnits="userSpaceOnUse" color-interpolation-filters="sRGB">
<feFlood flood-opacity="0" result="BackgroundImageFix"/>
<feColorMatrix in="SourceAlpha" type="matrix" values="0 0 0 0 0 0 0 0 0 0 0 0 0 0 0 0 0 0 127 0" result="hardAlpha"/>
<feMorphology radius="4" operator="erode" in="SourceAlpha" result="effect1_dropShadow_14_5625"/>
<feOffset dy="4"/>
<feGaussianBlur stdDeviation="3"/>
<feComposite in2="hardAlpha" operator="out"/>
<feColorMatrix type="matrix" values="0 0 0 0 0 0 0 0 0 0 0 0 0 0 0 0 0 0 0.1 0"/>
<feBlend mode="normal" in2="BackgroundImageFix" result="effect1_dropShadow_14_5625"/>
<feColorMatrix in="SourceAlpha" type="matrix" values="0 0 0 0 0 0 0 0 0 0 0 0 0 0 0 0 0 0 127 0" result="hardAlpha"/>
<feMorphology radius="3" operator="erode" in="SourceAlpha" result="effect2_dropShadow_14_5625"/>
<feOffset dy="10"/>
<feGaussianBlur stdDeviation="7.5"/>
<feComposite in2="hardAlpha" operator="out"/>
<feColorMatrix type="matrix" values="0 0 0 0 0 0 0 0 0 0 0 0 0 0 0 0 0 0 0.1 0"/>
<feBlend mode="normal" in2="effect1_dropShadow_14_5625" result="effect2_dropShadow_14_5625"/>
<feBlend mode="normal" in="SourceGraphic" in2="effect2_dropShadow_14_5625" result="shape"/>
</filter>
</defs>
</svg>
