<svg width="40" height="40" viewBox="0 0 40 40" fill="none" xmlns="http://www.w3.org/2000/svg">
<path d="M0 10C0 4.47715 4.47715 0 10 0H30C35.5228 0 40 4.47715 40 10V30C40 35.5228 35.5228 40 30 40H10C4.47715 40 0 35.5228 0 30V10Z" fill="#009689"/>
<path d="M18.3335 11.666H21.6668" stroke="white" stroke-width="1.66667" stroke-linecap="round" stroke-linejoin="round"/>
<path d="M20 21.666L22.5 19.166" stroke="white" stroke-width="1.66667" stroke-linecap="round" stroke-linejoin="round"/>
<path d="M20.0002 28.3333C23.6821 28.3333 26.6668 25.3486 26.6668 21.6667C26.6668 17.9848 23.6821 15 20.0002 15C16.3183 15 13.3335 17.9848 13.3335 21.6667C13.3335 25.3486 16.3183 28.3333 20.0002 28.3333Z" stroke="white" stroke-width="1.66667" stroke-linecap="round" stroke-linejoin="round"/>
</svg>
