<svg width="40" height="40" viewBox="0 0 40 40" fill="none" xmlns="http://www.w3.org/2000/svg">
<path d="M0 10C0 4.47715 4.47715 0 10 0H30C35.5228 0 40 4.47715 40 10V30C40 35.5228 35.5228 40 30 40H10C4.47715 40 0 35.5228 0 30V10Z" fill="#009689"/>
<path d="M17.0834 22.0833C17.6359 22.0833 18.1659 21.8638 18.5566 21.4731C18.9473 21.0824 19.1667 20.5525 19.1667 20C19.1667 18.85 18.7501 18.3333 18.3334 17.5C17.4401 15.7142 18.1467 14.1217 20.0001 12.5C20.4167 14.5833 21.6667 16.5833 23.3334 17.9167C25.0001 19.25 25.8334 20.8333 25.8334 22.5C25.8334 23.266 25.6825 24.0246 25.3894 24.7323C25.0962 25.4401 24.6665 26.0831 24.1249 26.6248C23.5832 27.1665 22.9401 27.5961 22.2324 27.8893C21.5247 28.1824 20.7661 28.3333 20.0001 28.3333C19.234 28.3333 18.4755 28.1824 17.7678 27.8893C17.06 27.5961 16.417 27.1665 15.8753 26.6248C15.3336 26.0831 14.9039 25.4401 14.6108 24.7323C14.3176 24.0246 14.1667 23.266 14.1667 22.5C14.1667 21.5392 14.5276 20.5883 15.0001 20C15.0001 20.5525 15.2196 21.0824 15.6103 21.4731C16.001 21.8638 16.5309 22.0833 17.0834 22.0833Z" stroke="white" stroke-width="1.66667" stroke-linecap="round" stroke-linejoin="round"/>
</svg>
